<svg xmlns="http://www.w3.org/2000/svg" data-name="Layer 1" viewBox="0 0 517 516" id="successful-leader"><g data-name="leader or founder"><path d="M424.9 210.24a30.46 30.46 0 0 0-.46-4c-.58-3.2-1.27-6.38-2.12-9.52-.44-1.63-.69-3.32-1-5a1 1 0 0 1 .45-1.21 1.67 1.67 0 0 0 .72-2.12c-.12-.46-.22-.92-.38-1.37-1.93-5.49-3.34-11.16-5.5-16.58a85.34 85.34 0 0 0-3.82-9 20.85 20.85 0 0 0-6.51-7.67 28.5 28.5 0 0 0-5.46-2.68c-1.69-.7-3.39-1.37-5.11-2a1.66 1.66 0 0 1-1.1-1.07 9.32 9.32 0 0 0-2.75-3.73c-.45-.41-.91-.8-1.36-1.22a5.63 5.63 0 0 1-1.83-4.16 18 18 0 0 1 .2-2.64c.11-.94.31-1.87.46-2.8.75-4.56-.91-8.11-4.56-10.79a41.18 41.18 0 0 1-4.35-3.67c-1.71-1.67-1.72-1.66-1.5-4-.36-.67-.79-1.11-1.5-.74a19.24 19.24 0 0 1-1.29 6.13 14.51 14.51 0 0 1-5.86 7.05 14.73 14.73 0 0 1-14 .89 20.63 20.63 0 0 1-9.08-7.54c0-.06 0-.13.05-.19a6.73 6.73 0 0 0-3.25 1.6 20.77 20.77 0 0 1-3.3 6c-2.43 3-4.76 6.09-7.24 9.05a16.73 16.73 0 0 0-4.1 11.4 20.59 20.59 0 0 0 .93 6.62.81.81 0 0 1-.39 1.17 7.83 7.83 0 0 0-.83.59 26 26 0 0 0-7.64 8.84 40.47 40.47 0 0 0-3.12 8.36 1.43 1.43 0 0 1-.76 1.19 6.24 6.24 0 0 0-.5-.78 70.47 70.47 0 0 1-4.92-6.49c-1.35-2-2.69-3.91-4.11-5.82a28.63 28.63 0 0 0-9.5-8.17c-2.87-1.53-5.76-3-8.64-4.53a18 18 0 0 0-5.54-1.94 1.4 1.4 0 0 1-1.25-1.13c-.47-1.63-1-3.24-1.39-4.89-1.22-5.42-1.14-10.92-.87-16.42a1.71 1.71 0 0 1 .64-1.21 21.73 21.73 0 0 0 3.59-4.4 23.46 23.46 0 0 0 2.62-5.93c.14-.46.33-.68.82-.72a5.2 5.2 0 0 0 3.72-1.86 19.93 19.93 0 0 0 3.81-6.68 7.81 7.81 0 0 0-.13-5.39c-.56-1.4-1.49-2.44-3.19-2.35a.47.47 0 0 1-.51-.31c.1-.27.21-.59.32-.91A28.3 28.3 0 0 0 294 82c-.22-1.53-.34-3.08-.51-4.71.8-.11 1.52-.19 2.24-.32a.46.46 0 0 0 .42-.58 48 48 0 0 1-1-7.64c-.55-4.51-1-9-1.44-13.57a3.71 3.71 0 0 1-.11-1.18c.11-.46.67-.38 1-.52a3.71 3.71 0 0 0 2.05-1.88 4.22 4.22 0 0 0-2.41-5.67 3.71 3.71 0 0 0-4.95 3.29 4.21 4.21 0 0 0 1.28 3.3c.37.36.79.66 1.18 1-2.95 3.35-7.61 7.92-8.87 8.71a108.09 108.09 0 0 1-8-8.8c2.44-1.39 3.35-2.87 2.93-4.76a4.7 4.7 0 0 0-4.4-3.58 4.09 4.09 0 0 0-4 2.53c-.74 2.05.07 3.8 2.64 5.59a3.83 3.83 0 0 1-.29.73c-1.82 2.86-3.64 5.73-5.47 8.58-.44.69-.53.7-1.25.1q-4.14-3.45-8.27-6.93c-.34-.3-.79-.5-.94-1a13.13 13.13 0 0 0 1.43-.77 4.06 4.06 0 0 0 1.05-5.92 4.42 4.42 0 0 0-6.32-.8 4.11 4.11 0 0 0-.36 6.12c.36.38.79.69 1.23 1.08-.43.6-.81 1.15-1.22 1.69l-5.44 7.12c-.37.48-.73 1-1.11 1.45s-.59.6-1.17.18l-6.09-4.43-2.71-2c.5-.32.9-.54 1.26-.8a4.8 4.8 0 0 0 1.91-3 4.46 4.46 0 0 0-4.78-5.35 4.78 4.78 0 0 0-3.9 5.36 4.24 4.24 0 0 0 2.89 3.61 1.09 1.09 0 0 1 .81 1c0 .4.08.81.11 1.21q.48 7.53 1 15c.06 1 .17 1.9.25 2.84a.75.75 0 0 0 .79.76h1.63a9.71 9.71 0 0 1 2.51.07c-.75 7.84.38 15.27 4.48 22.17-2 .42-2.51 1.82-2.52 3.51a9.65 9.65 0 0 0 3.77 8 5.45 5.45 0 0 0 3.35 1.32c.38 0 .8-.25 1.18.16a25.4 25.4 0 0 0 1.53 4.36 4.26 4.26 0 0 1 .46 2.55 54.91 54.91 0 0 1-1.89 10.8 14.45 14.45 0 0 1-2.25 4.53 1.42 1.42 0 0 1-1.71.49 61 61 0 0 0-19.36-1.94 40.21 40.21 0 0 0-17.23 5 52.49 52.49 0 0 0-12.81 10c-.32.34-.55.79-1.14.9a17.39 17.39 0 0 0-6.93-3.58 64.7 64.7 0 0 0-9.33-2 25.89 25.89 0 0 1-10-4.23 2.28 2.28 0 0 1-1.15-1.59 9.82 9.82 0 0 0-3.51-5.8c-.61-.54-1.16-1.14-1.72-1.73a1.21 1.21 0 0 1-.36-1.11 24.47 24.47 0 0 0 .18-6.89 1.61 1.61 0 0 1 .85-1.66 22.81 22.81 0 0 0 6.18-6.13 25.63 25.63 0 0 0 2.79-5.18 1.17 1.17 0 0 1 1.14-.91 4.52 4.52 0 0 0 3.54-2.44 19.33 19.33 0 0 0 2.21-5.24 10.39 10.39 0 0 0-.08-6.22 2.5 2.5 0 0 1 0-1.92 14.48 14.48 0 0 0 .93-5.18 47.73 47.73 0 0 0-1-9.9c-.18-.9-.22-1 .58-1.39a1.79 1.79 0 0 0 1-1.66 6.09 6.09 0 0 0-.1-1.41 16.56 16.56 0 0 0-1.37-4.24 26.12 26.12 0 0 0-7.14-9.29 18.06 18.06 0 0 0-9.42-4.48 27.29 27.29 0 0 0-17.45 3.39 16.15 16.15 0 0 0-7.38 8.65 26.74 26.74 0 0 0-1.69 8.54c-.09 2.92-.27 5.83-.44 8.75-.05.81-.1.88-.94 1a2.64 2.64 0 0 0-2.1 1.71 12.87 12.87 0 0 0-1 3.91 30.81 30.81 0 0 0 .09 6.51 10.06 10.06 0 0 0 1.14 3.67 2.21 2.21 0 0 0 2.24 1.43c.46 0 .6.19.61.58a26.15 26.15 0 0 0 .44 5.06 20.85 20.85 0 0 0 5.73 11.11c.92.9 2.12 1.45 2.93 2.47l-.69 3.79a8.69 8.69 0 0 0-.12 1 1.69 1.69 0 0 1-.91 1.47 13.2 13.2 0 0 0-5.49 7.1l-.15.38a1.2 1.2 0 0 1-.84.78c-1.8.6-3.63 1.11-5.48 1.55-2.83.67-5.68 1.29-8.49 2.05a49.52 49.52 0 0 0-8.59 3.11 12.57 12.57 0 0 0-5.69 5.34 22.87 22.87 0 0 0-1.69 3.7c-1 3.08-2.09 6.16-2.91 9.31-.71 2.69-1.43 5.37-2.19 8-2.44 8.54-4.93 17.06-7 25.71A104.63 104.63 0 0 0 92 212.11a27.72 27.72 0 0 0 2 13.73 16.15 16.15 0 0 0 4.54 5.92 5.9 5.9 0 0 0 4.94 1.34 11.64 11.64 0 0 0 4.73-1.73c1.07-.71 2.12-1.47 3.16-2.22.67-.48.77-.47 1.09.39a6.81 6.81 0 0 0 5.42 4.67c.26 0 .53.11.79.18a.65.65 0 0 1 .49.77c0 .61-.11 1.22-.09 1.83.11 5.16.21 10.32.39 15.47a41.72 41.72 0 0 0 .71 6.68c.44 2.19.84 4.39 1.24 6.59a2.36 2.36 0 0 0 1.07 1.65 3.61 3.61 0 0 0 1.1.53 1.16 1.16 0 0 1 .94 1.15c.12.88.26 1.75.37 2.62.6 4.44 1.24 8.87 1.5 13.35.23 3.79.54 7.58.83 11.37.13 1.76.3 3.52.49 5.27q.51 4.77 1 9.51c.45 3.91.85 7.83 1.38 11.73.86 6.32 1.79 12.63 2.72 18.94.64 4.43 1.43 8.84 2.27 13.23.89 4.67 1.79 9.33 2.53 14 .82 5.16 1.45 10.35 2.19 15.52q1.53 10.77 3.09 21.55c1.14 7.93 2.26 15.86 3.45 23.77 1.09 7.32 2.25 14.62 3 22a25.44 25.44 0 0 1 .26 3.34c-2.29.83-2.49 1.1-2.54 3.4a13.46 13.46 0 0 0 0 1.42 2.5 2.5 0 0 0 2.09 2.63 13.44 13.44 0 0 0 3.63.41c.86 0 1.74-.33 2.58.11.17.86.35 1.71.5 2.57a8.87 8.87 0 0 1-2.93 8.45c-.24.23-.51.44-.76.68a70.27 70.27 0 0 0-7.79 8 12.28 12.28 0 0 1-3.18 2.83 18.33 18.33 0 0 1-4.05 1.86 12.4 12.4 0 0 0-2.43 1 3.38 3.38 0 0 0-1.32 5.17c.54.86 1 1.77 1.52 2.62 1.63 2.6 3.9 4.11 7.11 3.79.81-.08 1.63-.11 2.43-.27 2.92-.6 5.85-1.19 8.75-1.87a69.93 69.93 0 0 0 12.65-4.4 13.67 13.67 0 0 0 4.63-3.26 6.16 6.16 0 0 0 1.52-2.83 76.31 76.31 0 0 0 1.1-8.65 13.49 13.49 0 0 0-.44-3.21c-.49-3.5-.91-7-1.33-10.5-.16-1.34-.22-2.69-.34-4.09l2.25-.57a2.89 2.89 0 0 0 2.25-2.36 12.82 12.82 0 0 0 .39-3c0-1.78-.81-3.54-3.07-3.52h-.2a.73.73 0 0 1-.66-.67c-.07-.39-.12-.8-.17-1.2-.28-2.71-.38-5.42-.39-8.14a70.33 70.33 0 0 0-.73-10.55c-.25-1.61-.39-3.23-.56-4.85s-.23-3.12-.48-4.66c-.65-4-1.33-8-2.08-12-1.2-6.47-2.56-12.9-3.67-19.39-.9-5.28-1.58-10.6-2.24-15.92-.46-3.7-.8-7.42-1.07-11.14a130.09 130.09 0 0 1-.27-17.1c.22-3.73.44-7.46.49-11.19.09-7 0-14 .09-21 0-3.12.16-6.24.27-9.36 0-.34-.09-.77.38-1.1a65 65 0 0 1 3.05 9.52c1 4.78 2.14 9.52 3.2 14.29 1.49 6.75 3 13.5 4.73 20.2 1.5 5.84 3 11.69 4.19 17.61 1.55 7.57 3.07 15.15 4.75 22.7 2.42 10.92 4.94 21.82 7.13 32.79 1.15 5.79 2.29 11.58 3.14 17.42.5 3.42 1.05 6.84 1.57 10.26a4.57 4.57 0 0 1-.3 3 4.6 4.6 0 0 0-.26 3.18 2.84 2.84 0 0 0 2.47 2.61c.7.08.9.47 1 1 .24 1.33.5 2.66.72 4a44.21 44.21 0 0 1 .45 11.77 89 89 0 0 1-1.74 10.64 12.19 12.19 0 0 0-.28 4 5.2 5.2 0 0 0 .65 2.12 13.23 13.23 0 0 0 7.13 6.08 11.25 11.25 0 0 0 11-1.66c4.21-3.11 6.29-9.59 4.25-14.61-1-2.46-2.27-4.78-3.5-7.12-.47-.9-1-1.78-1.45-2.68-2.49-4.85-2.72-10.17-3.27-15.43-.05-.4.22-.57.61-.64a13.6 13.6 0 0 0 3.3-1 3.06 3.06 0 0 0 1.9-2.68 10.52 10.52 0 0 0-.09-2.63 1.49 1.49 0 0 0-1.42-1.47c-.4-.07-.81-.08-1.21-.14a.69.69 0 0 1-.65-.85 22.06 22.06 0 0 0-.13-4.06 95.12 95.12 0 0 1-.65-9.54c-.05-3.74-.05-7.48-.43-11.2-.23-2.22-.53-4.44-.85-6.66-.61-4.3-1.25-8.59-1.89-12.88-.58-3.83-1.26-7.64-1.73-11.47-.55-4.45-.95-8.91-1.38-13.37-.5-5.07-1-10.13-1.43-15.2-.43-5.28-1.07-10.54-1.84-15.77-1-6.58-2.15-13.12-3.37-19.66-1.41-7.54-2.64-15.1-3.45-22.73q-.69-6.37-1.31-12.76c-.54-5.6-1-11.21-1.59-16.82a55.55 55.55 0 0 0-1.61-10.24c-.25-.86-.22-.87.51-1.23s1.24-.56 1.84-.88a24.7 24.7 0 0 0 2.41-1.21 2.92 2.92 0 0 0 1.29-3.53c-.27-.84-.49-1.7-.81-2.51-2.32-5.8-4.65-11.58-7.29-17.23a107.91 107.91 0 0 1-5.18-12.6c-.1-.28-.4-.58-.06-.9.45-.11.78.18 1.15.33 2.46 1 4.9 2 7.38 2.87a18.78 18.78 0 0 0 7 1.3 5.74 5.74 0 0 0 4.68-2.45 11.56 11.56 0 0 0 1.12-1.93c.22-.45.49-.64.95-.47a40.59 40.59 0 0 1 8.91 4.4.73.73 0 0 1 .31 1 6.92 6.92 0 0 0-.37 5c.2.86.39 1.72.6 2.57.69 2.91 1.44 5.79 2.07 8.71a15.17 15.17 0 0 1-1.45 10.62c-.54 1-1.09 2-1.67 3a7.13 7.13 0 0 0-1 2.66 2.33 2.33 0 0 0 2.1 2.73 3.58 3.58 0 0 0 2.7-.61c.72-.48 1.43-1 2.24-1.55.19 1.1.36 2 .5 2.95a33.34 33.34 0 0 0 .73 4.82 18.2 18.2 0 0 1 .62 3.77c.21 2.71.47 5.41.62 8.12a132.69 132.69 0 0 0 2.78 19.12c1.73 8.64 3.9 17.19 6.08 25.73 1.74 6.83 3.55 13.65 5.27 20.48a97.34 97.34 0 0 1 3.15 20.07c.14 3.53.27 7.06.49 10.58a103.92 103.92 0 0 1 .07 10.59c-.09 2-.17 4.07-.24 6.1-.29 8.82-.56 17.65-.88 26.47-.1 2.64-.3 5.29-.5 7.92q-.49 6.19-1.06 12.38c-.31 3.52-.63 7-1 10.54a130.3 130.3 0 0 0-.75 13.82c0 .75.07 1.5.09 2.24a1.12 1.12 0 0 0 .76 1.08l3.53 1.56c1 .45 1 .46.7 1.48-.83 2.65-1.73 5.28-2.5 7.95a47.48 47.48 0 0 1-9.12 17.34c-1 1.15-1.9 2.31-2.83 3.47-.6.74-1.17 1.5-1.72 2.28a10.63 10.63 0 0 0-1.39 2.7c-1.35 3.89-.11 6.63 3.72 8.15a22.6 22.6 0 0 0 8.59 1.36 11 11 0 0 0 3.6-.61 23.89 23.89 0 0 0 11.09-7.61q1.39-1.75 2.72-3.56a35.14 35.14 0 0 1 4.75-5.3 15.07 15.07 0 0 0 2.23-2.36 2.12 2.12 0 0 1 2.05-1h1.22c6.44-.26 12.89-.33 19.33-.73 5.5-.34 10.95-1 16.39-1.77a27 27 0 0 0 3.78-.8 3.3 3.3 0 0 0 2.57-3.48c-.09-2.38-1-4.52-3.81-5.42a17.71 17.71 0 0 0-1.78-.42 30 30 0 0 0-4.45-.46 49.71 49.71 0 0 1-10.09-1.16 23.64 23.64 0 0 1-12.61-8.47 9.2 9.2 0 0 1-2.09-6.83c.12-1.21.32-2.42.5-3.63.25-1.56.66-2.86 2.73-2.76 1 .05 1.69-.73 1.84-1.83.1-.67.27-1.33.43-2a179.91 179.91 0 0 0 3.52-19c.59-4.3 1.25-8.59 1.83-12.89.48-3.57.94-7.14 1.31-10.71.59-5.6 1-11.22 1.65-16.82s1.6-11.28 2.73-16.87a260.79 260.79 0 0 1 7-27q4.23-13.4 7.64-27A104.64 104.64 0 0 0 305 308c.38-4.41.42-8.82.42-13.23 0-8.49-.05-17-1.37-25.39-.19-1.2-.47-2.37.24-3.51a2.41 2.41 0 0 0 .17-.79 87.23 87.23 0 0 0 1.18-8.67 2.83 2.83 0 0 1 .66-1.64c1.65-2 3.25-4 4.9-6a37.7 37.7 0 0 0 5.88-8.75 3.84 3.84 0 0 1 3-2.26 98.75 98.75 0 0 0 10.06-2.76 38.32 38.32 0 0 1 10.14-2c.3 0 .66-.24.85.15s-.18.54-.3.77c-.54 1-1.12 2-1.56 3.08-.67 1.62-.27 2.54 1.32 3.28.37.17.77.28 1.15.42s.89-.28 1.3 0a1.83 1.83 0 0 1 0 .43 29.32 29.32 0 0 0-.28 8.52 2.69 2.69 0 0 1-.16 1.19c-.51 1.47-1.06 2.93-1.62 4.38a67.06 67.06 0 0 0-3.45 11.25 96.6 96.6 0 0 0-1.83 15.34 110.89 110.89 0 0 0 .38 15.46c.43 4.18.69 8.37 1.31 12.54a48.55 48.55 0 0 0 4.07 14.42c.48 1 1 1.93 1.49 2.89a1.31 1.31 0 0 0 1.09.79c1.69.16 3.31.77 5 .71.55 0 .81.2.95.78a66.35 66.35 0 0 0 4.29 12c1.86 4 3.72 8 5.22 12.14a45.12 45.12 0 0 1 2.61 11.68 60 60 0 0 1-.94 17c-1.12 5.59-2.57 11.1-4.15 16.57-1.65 5.73-3.09 11.51-4.49 17.31-.91 3.75-1.7 7.54-2.41 11.33-.63 3.33-1.09 6.7-1.6 10-.75 4.89-1.43 9.8-1.92 14.72-.18 1.9-.35 3.79-.53 5.68-.33 3.44-.68 6.89-1 10.33a59.81 59.81 0 0 1-3.09 15.09 31.38 31.38 0 0 0-1.77 6.46c-.14 1.08-.31 2.15-.52 3.22a21.36 21.36 0 0 0 .44 10.65 9.8 9.8 0 0 0 7.37 6.87 6 6 0 0 0 4.89-.7 8.4 8.4 0 0 0 3.64-4.74 20.13 20.13 0 0 0 1.05-7.82q-.31-3.86-.68-7.71c-.2-2.16-.41-4.32-.67-6.48a71.57 71.57 0 0 1-.45-5.47 73.13 73.13 0 0 1 .57-11c.23-2.22.37-4.47.79-6.66a49.35 49.35 0 0 1 2.42-8c1.85-4.95 3.76-9.88 5.5-14.86s3.62-9.79 5.53-14.64 3.94-9.51 5.92-14.26q1.06-2.53 2.15-5c0-.09.2-.15.32-.18s.23.06.26.23c.4 1.93.78 3.86 1.23 5.77a52.33 52.33 0 0 1 .95 5.41c.45 3.36.81 6.74 1.35 10.09 1.05 6.44 1.29 13 1.8 19.46.33 4.05.47 8.13.63 12.2.22 5.63.28 11.27 0 16.9-.13 3.19-.28 6.38-.2 9.57a25.18 25.18 0 0 1-.31 5.48c-.27 1.39-.48 2.81-.68 4.22a22.44 22.44 0 0 0-.2 6.89c.55 3.22 2.14 5.68 5.36 6.82a6.74 6.74 0 0 0 7.92-2.52 18.52 18.52 0 0 0 3.43-10.67c0-1.63.08-3.26.06-4.89a20.12 20.12 0 0 0-.21-3.65c-.4-2-.63-4-.93-6-.16-1.07-.22-2.16-.38-3.23a34.34 34.34 0 0 1-.35-9.33c.65-5.39 1.34-10.78 2-16.17.2-1.68.25-3.38.42-5.07.31-3.11.59-6.21.7-9.34.13-3.66.4-7.32.6-11 .17-3.18.46-6.36.48-9.56q.09-16 .27-32a118.12 118.12 0 0 1 .58-12.61c.35-2.89.7-5.79 1.06-8.68.32-2.63.73-5.24.95-7.88.31-3.86 1-7.67 1.53-11.49.64-4.36 1.33-8.71 2-13.07.29-1.95.22-3.93.56-5.88a1.39 1.39 0 0 1 1.07-1.28A10.54 10.54 0 0 0 414 320a3.17 3.17 0 0 0 1.35-2.53 130.25 130.25 0 0 0 .39-14.65 153.07 153.07 0 0 0-1.8-21.49c-.7-4.35-1.59-8.66-2.59-13-.79-3.43-1.51-6.88-2.37-10.3a62.84 62.84 0 0 0-3-10.31 1.86 1.86 0 0 1-.13-1 11.18 11.18 0 0 0-.92-5.76 90 90 0 0 1-4.11-14.87 2.18 2.18 0 0 1 0-1.45 3.73 3.73 0 0 1 .75.18 48.52 48.52 0 0 0 9 3.21 20.83 20.83 0 0 0 6.84.68 10.2 10.2 0 0 0 4.45-1.3 5 5 0 0 0 2.49-3.08 21 21 0 0 0 .84-4.59c.01-3.12-.11-6.31-.29-9.5Zm-46.08-86.53a.48.48 0 0 1 .35-.18 1.39 1.39 0 0 1 .55.22 10.5 10.5 0 0 1 3.18 3.64 7 7 0 0 1 .59 3.38V132c-.38 2.05.56 4 1.47 5.85.73 1.53 1.43 3.07 2.14 4.61a1.68 1.68 0 0 1 .12.38c0 .21 0 .44-.2.5a.7.7 0 0 1-.57-.08 2.75 2.75 0 0 1-.61-.79c-1.06-2.34-2.12-4.69-3.15-7a5.72 5.72 0 0 1-.38-2.4v-2.64a6.08 6.08 0 0 0-2.17-4.85c-.5-.45-1-.94-1.42-1.43-.03-.15.03-.36.1-.44Zm3.58 40.08c-.35.12-.52-.12-.7-.3a58.6 58.6 0 0 0-7.85-6.11c-.74-.52-.81-.68-.41-1.52.57-1.22 1.22-2.41 1.85-3.61a10.86 10.86 0 0 0 1.69-4.74c0-.52.33-.7.8-.65l2.43.29a1.32 1.32 0 0 1 1.14 1 19 19 0 0 1 .63 3 55 55 0 0 1 .64 12c-.01.18.07.49-.22.64Zm-6.65-34.37a.42.42 0 0 1 .45-.31c.12 0 .3.1.33.19a5.94 5.94 0 0 1 .31 1.17 44.26 44.26 0 0 0 2.8 10.74 5.42 5.42 0 0 1 .25 1 .4.4 0 0 1-.21.3.58.58 0 0 1-.39 0 1.45 1.45 0 0 1-.75-.91 29.46 29.46 0 0 1-1-2.85 57.3 57.3 0 0 1-1.76-8.1c0-.27-.05-.54-.07-.79a2.24 2.24 0 0 1 .04-.44Zm-19.44 11.24a41.48 41.48 0 0 0 .4-9.32c0-.33-.13-.67.22-1a17.81 17.81 0 0 0 14.24-1.47c.23.93.41 1.58.55 2.23.58 2.72 1.22 5.42 1.7 8.15.42 2.34 1.23 4.57 1.77 6.87a4.33 4.33 0 0 1-.18 3 21.84 21.84 0 0 1-.89 2 38 38 0 0 0-3.89 8.91c-.65 2.18-1.09 4.43-1.61 6.61-.44.07-.56-.17-.67-.42-.52-1.18-1-2.35-1.55-3.53a70.9 70.9 0 0 0-8.39-15c-.12-.16-.21-.34-.34-.5a7.35 7.35 0 0 1-1.36-6.53Zm.31 7.72a51.52 51.52 0 0 1 4.39 6.83c.66 1.27 1.3 2.53 2 3.79a.78.78 0 0 1-.21 1.07c-1 .92-1.93 1.9-2.94 2.8a21.77 21.77 0 0 0-3.91 4.39 1.7 1.7 0 0 1-.42.34c-.39-.16-.5-.49-.66-.79a26.6 26.6 0 0 1-1.93-4.69 79.36 79.36 0 0 1-2.19-8 32 32 0 0 1-.39-4.25.83.83 0 0 1 .63-.91 35.13 35.13 0 0 1 4.31-1.17 1.25 1.25 0 0 1 1.32.59Zm-9.17-3.38a2.67 2.67 0 0 1 .31-.51 16 16 0 0 0 3.35-9c0-.54.06-1.08.12-1.62a.42.42 0 0 1 .41-.36.38.38 0 0 1 .43.33c.07.53.07 1.07.11 1.8a16.93 16.93 0 0 1-3.31 9.25 3.14 3.14 0 0 1-.72.69.67.67 0 0 1-.55 0 .42.42 0 0 1-.15-.58Zm-7.27-7c.64-1 1.19-2 1.82-2.93a25 25 0 0 0 3.14-7 4.18 4.18 0 0 1 .67-1.68.43.43 0 0 1 .37-.08c.11 0 .26.14.27.23a2.32 2.32 0 0 1 0 .79 26.38 26.38 0 0 1-3 7.52c-.75 1.29-1.56 2.54-2.37 3.79a14.36 14.36 0 0 0-2.11 5c-.18.93-.39 1.85-.59 2.78a6.57 6.57 0 0 0 .24 3.2.49.49 0 0 1-.91.31 5 5 0 0 1-.48-2.33 19.3 19.3 0 0 1 2.95-9.6Zm-20.84 38.44a35.55 35.55 0 0 1 4.86-12.19 25.09 25.09 0 0 1 9.77-8.36c3.76-1.87 7.58-3.61 11.51-5.1.51-.19 1-.39 1.53-.56 1.86-.64 1.8-.63 1.86 1.17a33.45 33.45 0 0 0 1.67 8.35c.6 2.07 1.42 4.09 2.16 6.12a11.46 11.46 0 0 0 1.88 3.36c.68.83 1.41.82 1.94-.12 1.69-3 4.34-5.17 6.76-7.53.58-.57.84-.49 1.17.27 1 2.31 1.95 4.62 2.95 6.92a7.88 7.88 0 0 0 .9 1.57.76.76 0 0 0 1.31-.23 8.12 8.12 0 0 0 .25-1.19 75.82 75.82 0 0 1 2.33-9.88 3 3 0 0 1 .39-.61 29.65 29.65 0 0 1 4.82 3.28 27.21 27.21 0 0 1 4.84 4.63 2.61 2.61 0 0 0 .3.27 1 1 0 0 0 1.55-.6 7.18 7.18 0 0 0 .06-.81c.17-3.05.14-6.11.07-9.16a54.05 54.05 0 0 0-1-6.43c-.08-.58-.21-1.16-.34-1.89a6.25 6.25 0 0 1 2.12.28 83 83 0 0 0 9.1 2.15 3.64 3.64 0 0 1 .79.19c2.76 1.11 5.55 2.13 8.26 3.4a17.67 17.67 0 0 1 7.33 6.82 40.65 40.65 0 0 1 3.41 7.14c1.15 2.89 2.21 5.82 3.26 8.75.48 1.34.84 2.72 1.26 4.07.81 2.59 1.63 5.17 2.44 7.75.15.47.24.9-.3 1.24a31.25 31.25 0 0 1-13.65 4.9 8.79 8.79 0 0 1-1.62 0c-2.36-.25-2.34-.26-2.37-2.68a35 35 0 0 0-1.56-10.42 69 69 0 0 0-3.28-8.31 2.08 2.08 0 0 0-.2-.36c-.22-.35-.46-.68-1-.58s-.56.57-.28 1.19c1 2.36 1.92 4.78 2.75 7.21a32.35 32.35 0 0 1 1.48 16.54c-.58 3.07-1.08 6.15-1.65 9.21a23.54 23.54 0 0 0-.32 3.24c-.06 1.07-.06 1.11-1.21 1-2.65-.17-1.86.37-3.33-1.9a21.55 21.55 0 0 0-3.48-4.48 1.77 1.77 0 0 1-.5-2.16 16.5 16.5 0 0 0 .56-8.43 17 17 0 0 0-5.55-9.69 19.65 19.65 0 0 0-22.41-2.42c-6.94 3.86-10.59 11.11-8.84 19.06a16.72 16.72 0 0 0 3.05 6.45c-.37.54-.71 1.11-1.12 1.62a78.93 78.93 0 0 0-4.93 7c-.28.43-.57.74-1.12.66h-.21A5.51 5.51 0 0 1 348 216c-.59-.27-.42-1.08-.63-1.63a31.43 31.43 0 0 0-2-4.24 72.1 72.1 0 0 0-6.52-9.82 5.5 5.5 0 0 1-1.19-4.91 27.53 27.53 0 0 0 .47-4.45c.12-3.2.69-6.33 1.11-9.49.12-.87.15-1.76.19-2.63a1.51 1.51 0 0 0-.15-.79.73.73 0 0 0-.62-.45.66.66 0 0 0-.63.43 1.88 1.88 0 0 0-.13.79 19.11 19.11 0 0 1-.4 3.84 63.13 63.13 0 0 0-.95 8.68c-.07 1.29-.26 2.57-.42 3.84a1 1 0 0 1-.6.88c-1.51-1.77-3.06-3.56-4.58-5.37a43.65 43.65 0 0 0-3.84-4.2.37.37 0 0 0-.3-.31l-.1-.1a.41.41 0 0 0-.31-.32l-.08-.09a.52.52 0 0 0-.33-.33l-.06-.08a.74.74 0 0 0-.34-.36v-.05a.55.55 0 0 1 .06-.75c.6-.26.64-.74.26-1.13a8.89 8.89 0 0 0-1.47-1.09 26.51 26.51 0 0 1-4.58-4 1.4 1.4 0 0 1-.52-1.44ZM409 212.49c-1.1-.3-1.94-.5-2.77-.76a21.54 21.54 0 0 0-5-.9c-.71-.05-1-.33-.92-1a30.18 30.18 0 0 1 .34-3.43c.65-3.59 1.35-7.16 2-10.74.49-.26.89.14 1.34.15 1.15 0 1.25.35 1.38 1.55.22 2.08.25 4.18.65 6.25.98 4.66.98 4.66 2.98 8.88Zm-40.82-13.82c.16.37.38.71.58 1.07a3.48 3.48 0 0 1-.34.51 1.5 1.5 0 0 0 0 2 11.22 11.22 0 0 0 1.92 2.09c2.6 2.28 5.18 4.59 7.76 6.89.31.28.26.69-.1.79a18 18 0 0 1-12.53-.61 16.76 16.76 0 0 1-7.27-5.69 14.89 14.89 0 0 1-2.29-13.51 15.67 15.67 0 0 1 7.27-9.16 17.26 17.26 0 0 1 15.63-1.43 15.84 15.84 0 0 1 10.53 12 15.1 15.1 0 0 1-.52 8.1c-.61-.55-1-.89-1.4-1.27a49.14 49.14 0 0 0-6.72-5.58 14.38 14.38 0 0 0-4.38-2.09 4 4 0 0 0-2.21-.07c-.53.15-1.11.41-1.17 1-.09.8-.56.78-1.13.8-.95 0-1.76.28-1.92 1.41 0 .3-.28.44-.55.52a1.74 1.74 0 0 0-.39.11c-1.07.51-1.26 1.03-.76 2.12Zm-6.64 13.05c-.07.11-.12.24-.2.35l-4.75 6.29c-.29.4-.63.5-1 .16a10.88 10.88 0 0 0-3.3-1.86 42 42 0 0 1 5.86-8.26c1.1.87 2.21 1.72 3.3 2.6a.51.51 0 0 1 .1.72Zm-71.07-162.2a2.51 2.51 0 0 1 2.5-2.65 3 3 0 0 1 2.92 3 2.48 2.48 0 0 1-2.5 2.62 2.92 2.92 0 0 1-2.92-2.97Zm-20 .51a2.65 2.65 0 0 1 .93-3.23 3.27 3.27 0 0 1 3.46-.18 3.06 3.06 0 0 1 1.86 2.64 2.91 2.91 0 0 1-2.72 3 3.63 3.63 0 0 1-3.52-2.26Zm-19 .32a3.13 3.13 0 0 1 3.29-2.91 3 3 0 0 1 3.15 3 3.18 3.18 0 0 1-3.15 3.09 3.31 3.31 0 0 1-3.23-3.18Zm-17.67 7a3.26 3.26 0 0 1-3.1-3.35 3.55 3.55 0 0 1 3.36-3.62 3.19 3.19 0 0 1 3.13 3.3 3.5 3.5 0 0 1-3.33 3.65ZM238.43 78h-2a.66.66 0 0 1-.7-.6c-.06-.41-.08-.81-.11-1.22-.11-1.49-.22-3-.32-4.46-.26-3.8-.5-7.59-.75-11.38 0-.19 0-.42.25-.47a.52.52 0 0 1 .37.05c.4.26.79.54 1.17.82 2.3 1.68 4.6 3.37 6.9 5 1.59 1.15 1.6 1.15 2.85-.47 1.08-1.4 2.14-2.8 3.21-4.2l3.83-5a2.48 2.48 0 0 1 1.08-1l5.11 4.26 5.14 4.32c.26.21.51.44.78.65.63.47.93.44 1.36-.15.28-.38.53-.78.78-1.19q2.46-3.86 4.91-7.73c.29-.45.61-.89.9-1.32.65.13.92.63 1.28 1l6.92 7.47c.32.35.63.71 1 1 .53.51.83.52 1.39 0 1.92-1.92 3.82-3.86 5.74-5.78.81-.82 1.63-1.64 2.45-2.44a.37.37 0 0 1 .6.22q.44 3.84.85 7.69.57 5.35 1.15 10.72v.2c.18 2.07.29 2-1.8 2.08-9.23.28-18.45.6-27.67.91a31.08 31.08 0 0 1-6.1 0 6.31 6.31 0 0 0-1.62 0c-4.26.41-8.53.56-12.81.65-2.07.13-4.1.25-6.14.37ZM251 114.07a5.48 5.48 0 0 0-.35-1.15.6.6 0 0 0-.83-.37c-1.62.82-2.9.07-4.08-.91a9.09 9.09 0 0 1-3.18-6.58 4.18 4.18 0 0 1 .15-1.21c.24-1.11.76-1.59 1.85-1.27a1.72 1.72 0 0 0 .59.08.5.5 0 0 0 .47-.55 1.76 1.76 0 0 0-.06-.61 1.86 1.86 0 0 0-.37-.71c-1.66-1.86-1.64-4.1-1.41-6.34a29.72 29.72 0 0 1 3.85-11.7 4.86 4.86 0 0 1 2.18-2 14.84 14.84 0 0 1 5.6-1.5c.11.29-.09.5-.15.76-.13.58.09 1 .59 1.06a6.64 6.64 0 0 0 1.41 0 59.67 59.67 0 0 0 7-1.14 2.78 2.78 0 0 1 1.62-.11 3.55 3.55 0 0 0-.06.56c0 .64.24.93.74 1a7.09 7.09 0 0 0 2.43-.08c4.79-.89 9.64-1.48 14.4-3.18A43.81 43.81 0 0 1 288.12 90a66.6 66.6 0 0 1 1.19 8.45 2.84 2.84 0 0 0 .26 1.37.63.63 0 0 0 1 .17 7.37 7.37 0 0 1 1.25-1.59 1.59 1.59 0 0 1 2.47.27 3.23 3.23 0 0 1 .69 1.46 7.93 7.93 0 0 1-.33 4.79 24.4 24.4 0 0 1-2.94 5.1 5 5 0 0 1-2.05 1.62 2.71 2.71 0 0 1-1.57.21c-1-.16-1-.1-1.3.74-.16.45-.25.92-.39 1.37-2 6-5.68 10.58-11.59 13.13a16.84 16.84 0 0 1-20.6-5.81 19.85 19.85 0 0 1-3.21-7.21Zm1.22 12.77c.27-1.59.42-3.21.62-4.85.66-.13.78.46 1 .78a18 18 0 0 0 8.17 5.83 18.38 18.38 0 0 0 15.64-1.67c.57-.33 1.13-.68 1.66-1 .35.4.22.74.22 1.06 0 1.22-.06 2.44-.1 3.66a46.37 46.37 0 0 0 2.25 15.81c.27.81.24.92-.44 1.31a24.78 24.78 0 0 1-10 3.22 23.12 23.12 0 0 1-7.28-.28 17.79 17.79 0 0 1-3.46-1.15 25.09 25.09 0 0 1-9.88-7.94c-.87-1.2-1.7-2.44-2.65-3.81 2.85-3.23 3.61-7.09 4.28-10.97Zm-88.4 8.16a9 9 0 0 1 2.77 8.5 26.09 26.09 0 0 1-2.59 7.7 13.15 13.15 0 0 1-2 2.82 1.1 1.1 0 0 1-.88.49c-.16-.42-.34-.85-.48-1.29a14.11 14.11 0 0 0-4-6.26c-.3-.28-.61-.54-.89-.83a.58.58 0 0 1-.11-.74 5.69 5.69 0 0 1 .33-.52 46.89 46.89 0 0 0 5.49-10.87 7.41 7.41 0 0 1 .47-.87c.74.76 1.3 1.35 1.89 1.87Zm-9.16 9.23c-1.95 2.85-3.79 5.77-5.47 8.79a.49.49 0 0 1-.78 0c-.21-1.54-.39-3.09-.64-4.63-.82-5-1.58-10-2.11-15.09a26.25 26.25 0 0 1 .47-8.48 3.24 3.24 0 0 1 .28-.65 28.8 28.8 0 0 0 4.83 1.25 20.34 20.34 0 0 0 4.87-.12 21.85 21.85 0 0 0 4.75-1.48c.46.35.36.79.4 1.17a19.23 19.23 0 0 1-1.07 8.2 47.82 47.82 0 0 1-5.53 11.07ZM141 117.63a19.58 19.58 0 0 1-3.65-9.79 29.09 29.09 0 0 1 0-5.9c.05-.46.16-1-.37-1.26s-.73 0-1.12.87c-.23.49-.37 1.15-1 1.18-.77 0-.78-.8-1.09-1.28a1.22 1.22 0 0 1-.13-.38 19.73 19.73 0 0 1 .07-11.24 3 3 0 0 1 .57-1.07.8.8 0 0 1 .9-.3c.25.09.5.21.75.29a5 5 0 0 0 6-2.58 19.78 19.78 0 0 0 1.14-3 42.72 42.72 0 0 1 2.37-6.27c.15-.3.26-.62.44-.91.86-1.4 1.76-1.69 3-1 3 1.51 6.19 2.74 9.14 4.43.82.47 1.65.94 2.49 1.39a15 15 0 0 0 1.47.67 2.09 2.09 0 0 0 2.83-.83 2.51 2.51 0 0 1 .25-.32s.1 0 .27-.12a29.63 29.63 0 0 0 5.65 5.76 8.38 8.38 0 0 1 3.02 6.38v3.66a9.64 9.64 0 0 0 .06 1.42.8.8 0 0 0 1.29.42c.49-.47.92-1 1.41-1.45a.64.64 0 0 1 1.11.31 9.36 9.36 0 0 1 .15 4.43 16.47 16.47 0 0 1-2.17 5.67 4 4 0 0 1-1.74 1.66.76.76 0 0 1-1.16-.4c-.15-.3-.2-.64-.37-.93a.64.64 0 0 0-.5-.22.8.8 0 0 0-.49.3 1.14 1.14 0 0 0-.18 1 2.61 2.61 0 0 1-.13 1.58 23.06 23.06 0 0 1-8.8 11.41 16.23 16.23 0 0 1-8.57 2.89 14.72 14.72 0 0 1-12.91-6.47Zm-2.72 22.51a25.42 25.42 0 0 1 1.86-4.94 10 10 0 0 1 3.61-4 1.18 1.18 0 0 1 .37 1c.3 3.79.77 7.57 1.36 11.32a1.29 1.29 0 0 1-.76 1.62 10.68 10.68 0 0 0-3.75 3.66c-1 1.38-1.91 2.8-2.87 4.2a6.7 6.7 0 0 1-1.45 1.69.56.56 0 0 1-.91-.37 10.12 10.12 0 0 1 .15-3.84q1.11-5.19 2.38-10.34ZM102.77 173c.52-2 1.11-3.91 1.63-5.88 1.06-4.12 2.21-8.12 3.6-12.12a26.6 26.6 0 0 1 1.9-4.26 10.89 10.89 0 0 1 4.65-4.42 37.42 37.42 0 0 1 5.47-2.2 85.62 85.62 0 0 1 9.43-2.51 66.4 66.4 0 0 0 7.08-1.95c.36.68 0 1.25-.11 1.8-.67 3.12-1.38 6.22-2.09 9.33a10.39 10.39 0 0 0-.18 3.24c.09 1 .3 1.94 1.35 2.32a2.24 2.24 0 0 0 2.51-.91 24.05 24.05 0 0 0 1.74-2.25c1-1.38 1.89-2.82 2.9-4.18a8 8 0 0 1 3-2.68 3.08 3.08 0 0 1 .58 1.77 53 53 0 0 0 1.29 8 4.51 4.51 0 0 1 0 2.22c-.93 3.68-1.57 7.43-2.2 11.17-.21 1.27-.3 2.56-.41 3.84a4.52 4.52 0 0 0 .12 1.21.74.74 0 0 0 .64.68c.35 0 .67-.31.69-.84.2-5.45 1.6-10.72 2.55-16.05a11.71 11.71 0 0 1 .62-2.15 44.79 44.79 0 0 1 4.86-8.75c.65-.14.89.24 1.17.49a13.15 13.15 0 0 1 3.75 5.72 12.28 12.28 0 0 0 .72 1.89 1.33 1.33 0 0 0 2.08.47 7.73 7.73 0 0 0 1.19-1.1 15.25 15.25 0 0 0 2.61-4.11 30.37 30.37 0 0 0 2.16-7 1.77 1.77 0 0 1 .53-1.33c.56.33 1.15.65 1.72 1a23.84 23.84 0 0 0 8.88 3.39c2.14.35 4.26.81 6.38 1.26a28.45 28.45 0 0 1 6.15 2.1 9.75 9.75 0 0 1 2.22 1.42c.58.52.6.72.18 1.38-.85 1.3-1.72 2.6-2.54 3.93a9.72 9.72 0 0 0-1.34 3 2.23 2.23 0 0 1-1 1.45c-.73.49-1.41 1.06-2.12 1.58s-1 .2-1.14-.51a4.06 4.06 0 0 1 .65-3.11c.56-.84 1.2-1.64 1.82-2.44.26-.34.49-.66.21-1.09s-.74-.3-1.2.24a19.59 19.59 0 0 0-2 2.55c-1 1.7-1.5 3.5-.34 5.36a.52.52 0 0 1-.09.71c-.37.4-.79.75-1.17 1.13-4.3 4.35-8.7 8.58-12.74 13.18a81 81 0 0 0-8 10.54 21.43 21.43 0 0 0-3.16 7.44c0 .13-.14.23-.35.56a11.73 11.73 0 0 1-1.81-2.85 10.77 10.77 0 0 0-2.49-3.44 5 5 0 0 0-4.85-1.44 4.31 4.31 0 0 1-1 .23 7.32 7.32 0 0 0-4.6 1.64c-.54-.29-.48-.74-.54-1.12-.44-3.16-.87-6.32-1.32-9.47a12.18 12.18 0 0 0-.44-2 3.71 3.71 0 0 0-3.78-2.82 39.19 39.19 0 0 0-5.08.24c-4 .48-7.93 1.07-11.89 1.62-.4.06-.81.12-1.21.15s-.74-.27-.63-.79a21.7 21.7 0 0 1 .67-2.55c.42-1.15.94-2.25 1.41-3.38a11 11 0 0 0 .47-1.12.51.51 0 0 0-.34-.64.8.8 0 0 0-.57 0 2.07 2.07 0 0 0-.88 1.09 20.16 20.16 0 0 0-2.12 6.54c-.1 1-.21 1.16-1.22 1.21-1.43.08-2.85.08-4.28.15a6.54 6.54 0 0 1-2.76-.61 43.45 43.45 0 0 1-7-3.68c-.75-.4-.83-.61-.59-1.49Zm7.68 55a17.09 17.09 0 0 1-5.17 3.16 12.14 12.14 0 0 1-2 .47 4.69 4.69 0 0 1-4.11-1.29 15.22 15.22 0 0 1-4.07-5.75A28 28 0 0 1 93.61 211c1-8.17 3.08-16.08 5.21-24 .88-3.27 1.8-6.53 2.7-9.79.16-.57.36-1.13.59-1.85l4.24 2.58c.31.2.27.44.08.7a.91.91 0 0 0-.89 1.11c.19 1.68.32 3.37.6 5 1 5.95 1.78 11.93 2.25 17.95.12 1.54.4 3.08.61 4.66-.23.27-.56.16-.89.07a7 7 0 0 0-.79-.18c-2.08-.26-3.11.51-3 2.68a4 4 0 0 1-.35 2 4.89 4.89 0 0 0-.38 2 12.6 12.6 0 0 0 .47 4.8c.43 1.14.68 2.34 1.07 3.49a3.41 3.41 0 0 0 3.65 2.61 12.14 12.14 0 0 0 2.5-.36c.48 0 .52.13.53.3.13 2.02.19 2.03-1.36 3.23Zm-5.27-11.35 5 .45c.73.07 1.47.16 2.2.25a1.93 1.93 0 0 1 1.41 1.73c0 .33-.28.43-.56.44a22.6 22.6 0 0 1-5.63-.47 9.23 9.23 0 0 1-1.54-.5 1.45 1.45 0 0 1-.88-1.89Zm-.34-2.36a4.43 4.43 0 0 1 .4-1.81 6.29 6.29 0 0 1 .82.25 11 11 0 0 0 5.06 1.32 1.3 1.3 0 0 1 1.26.87.59.59 0 0 1-.49.88 2.41 2.41 0 0 1-.6 0 35.72 35.72 0 0 0-5.46-.47.94.94 0 0 1-.99-1.03Zm7.24-1.77h-1.31c-1.7.23-3.17-.72-4.74-1.33a.82.82 0 0 1-.43-.65c-.27-1.46.12-1.9 1.58-1.74a7.62 7.62 0 0 1 3.75 1.44 6.23 6.23 0 0 1 1.54 1.31.64.64 0 0 1-.39.98Zm-2.37 10.71c-2.3.33-2.89 0-3.55-2.18a8.63 8.63 0 0 1-.15-.85c1.12.2 2 .4 2.95.52s2 .25 3 .3a1.5 1.5 0 0 1 1.3.79c.13.23.32.52.28.73-.09.39-.51.32-.83.35-.99.11-2 .21-3 .35Zm9.24 9.65a5.51 5.51 0 0 1-5.2-4.41 25.28 25.28 0 0 1-.4-2.61c-.12-.84-.11-1.51 1-1.8.7-.18.93-.93.76-1.68a5.72 5.72 0 0 0-.43-1.13.64.64 0 0 1 .11-.72c.84-1.31.85-2-.16-3.28-.48-.59-.93-1.06-.72-1.93.09-.32-.21-.76-.37-1.13a1 1 0 0 1 .13-.93 2.14 2.14 0 0 0-.44-3.06 4.08 4.08 0 0 0-1-.75 3.55 3.55 0 0 1-1.84-2.94c-.23-1.61-.59-3.22-.69-4.83a155.86 155.86 0 0 0-2.35-18.15 5.87 5.87 0 0 1-.15-1c0-.74-.57-1.59-.16-2.16s1.4-.07 2.12-.1h4.07a68.72 68.72 0 0 0 9.92-.87 137.6 137.6 0 0 1 13.73-1.69 13.76 13.76 0 0 1 2 0 2.24 2.24 0 0 1 2.1 1.64 9.66 9.66 0 0 1 .36 1.38q1.26 8.66 2.7 17.28c.78 4.74 1.45 9.51 1.93 14.31.33 3.31.76 6.6.85 9.93.05 1.76.11 3.53.09 5.29s-.48 2.29-2.19 2.62a20.3 20.3 0 0 1-2.82.34 123.22 123.22 0 0 0-18.16 2.22 16.51 16.51 0 0 1-4.74.17Zm8.21 44.36c-.31-2.61-.78-5.2-1.17-7.81-.1-.66.06-.82.76-.74 1.34.15 2.68.32 4 .49a49.77 49.77 0 0 0 5.85.47.42.42 0 0 1 .45.35 1.93 1.93 0 0 1-.22.52c-.63.79-1.25 1.59-1.94 2.33a34.9 34.9 0 0 1-5.81 5.32c-1.59 1.11-1.68 1.07-1.92-.92Zm43.63 196.07c-.23.62-1.07.42-1.61.67a33.94 33.94 0 0 0-4.51 2.75c-.33.23-.64.48-1.21.9-.47-3.44-2.67-5-5.28-6.27-.19-.09-.39-.12-.58-.2a.56.56 0 0 1-.33-.67c.67-2.17.24-4.3-.21-6.43a2.73 2.73 0 0 1-.05-.4c-.08-.67.08-.88.71-.95.94-.11 1.88-.25 2.83-.3 2.31-.13 4.58-.55 6.86-.83s2.37-.7 2.49 2.05a63.78 63.78 0 0 0 .71 6.46c.06.47.13.94.16 1.42a4.75 4.75 0 0 1 .02 1.81Zm1.76-19.86a2.16 2.16 0 0 1 1.93 2.25 7 7 0 0 1 0 1c-.2 2.06-.8 2.78-2.82 3.11-3.27.54-6.56 1-9.87 1.27-2.36.2-4.73.35-7.09.59a14.44 14.44 0 0 1-3.83-.28 2.16 2.16 0 0 1-2-2.38c-.09-1.87 0-2 1.87-2.48 1.19-.33 2.41-.34 3.61-.58 2.78-.55 5.57-1.13 8.37-1.62a61.94 61.94 0 0 1 7.74-1.06 17.12 17.12 0 0 1 2.09.19Zm36.86 11.77a12.74 12.74 0 0 0-3.85.1c-2.18.46-4.36.95-6.2 2.73-.27-2-.49-3.81-.77-5.59s-.61-3.46-1-5.41c2-.17 3.8 0 5.57-.5l5.32-1.56a4.19 4.19 0 0 1 .3.77c.39 3 .76 5.91 1.14 8.86.08.38-.06.65-.51.61Zm2.42-17a3.23 3.23 0 0 1 2.55.18c.45.24.48 2.12.14 2.92a1.45 1.45 0 0 1-.83.85 16.85 16.85 0 0 1-2.31.76 59.48 59.48 0 0 0-6.32 1.56 19.12 19.12 0 0 1-3.14.83 29.09 29.09 0 0 1-3.25.18h-2.84a1.33 1.33 0 0 1-1.41-1.21 4.13 4.13 0 0 1 .12-2.6 1 1 0 0 1 .91-.7l1.43-.05a54.79 54.79 0 0 0 14.58-2.58c.13-.04.24-.12.37-.16ZM194.05 303c.81 7.55 2 15.06 3.4 22.53a449.95 449.95 0 0 1 3 17.43c1.13 7 1.91 14.12 2.53 21.22.51 5.88 1 11.77 1.62 17.64.67 6.55 1.5 13.07 2.65 19.56.7 3.94 1.2 7.91 1.76 11.88.35 2.48.66 5 .95 7.47.15 1.34.24 2.7.29 4.05.14 3.94.22 7.88.4 11.81.1 2.24.35 4.47.57 6.69a14.28 14.28 0 0 1 0 2.85 1.12 1.12 0 0 1-1 1.12c-2 .48-4.07 1-6.13 1.45a62.34 62.34 0 0 1-7.46 1h-1.51c-.23-1.59-.45-3.13-.69-4.66-.65-4.22-1.22-8.46-2-12.67-1-5.47-2.06-10.92-3.16-16.37-2-9.91-4.32-19.74-6.5-29.61-1.66-7.54-3.16-15.13-4.73-22.7-1.07-5.18-2.35-10.31-3.68-15.43-1.94-7.48-3.65-15-5.27-22.57-.72-3.32-1.59-6.6-2.26-9.92a60.4 60.4 0 0 0-3.54-11.86 6 6 0 0 1-.19-.65c.46-.37 1-.2 1.51-.27.81-.13 1.62-.22 2.41-.39a.68.68 0 0 0 .57-.73.79.79 0 0 0-.85-.69c-.2 0-.4.09-.6.11-.74.08-1.48.16-2.22.22a8.07 8.07 0 0 1-4.72-1c-.34-.19-.66-.51-1.11-.3-.24.36-.37.73 0 1.09.45.61 1.52.52 1.72 1.31a7.61 7.61 0 0 1-.08 2c-.24 6.11-.11 12.22-.17 18.33s-.09 12-.37 17.92c-.23 4.68-.36 9.36-.35 14 0 4.28.4 8.54.73 12.81.45 6.09 1.43 12.12 2.23 18.18.66 4.9 1.62 9.76 2.58 14.62 1.32 6.65 2.51 13.33 3.71 20 .24 1.33.3 2.7.46 4 .35 3 .73 6.06 1.05 9.09.16 1.42.26 2.84.32 4.27.14 3.46.23 6.92.37 10.37 0 .88.17 1.76.28 2.63a.65.65 0 0 1-.64.82c-1.28.19-2.55.4-3.83.58-3.63.51-7.2 1.28-10.78 2.07-1.06.23-2.13.39-3.21.55-.64.09-.86-.1-.94-.74-.25-2.16-.47-4.32-.75-6.47-.46-3.57-.93-7.13-1.44-10.69-.6-4.16-1.25-8.32-1.87-12.48-.77-5.17-1.55-10.33-2.3-15.5-.91-6.31-1.78-12.63-2.68-18.94-.74-5.24-1.58-10.47-2.24-15.72s-1.65-10.59-2.58-15.86c-.7-4-1.56-8-2.21-12-.83-5.08-1.54-10.19-2.28-15.29-.47-3.22-.93-6.45-1.33-9.68-.52-4.11-1-8.22-1.46-12.33-.35-3.1-.69-6.21-1-9.32-.4-4.59-.74-9.2-1.1-13.8l-.36-4.46a1.37 1.37 0 0 1 .81-1.47 30.69 30.69 0 0 0 10-9.4 1.85 1.85 0 0 1 1.8-1c2.09.14 4.19.17 6.43.25a7.39 7.39 0 0 1 .34 2.11 63.58 63.58 0 0 0 2.16 11.79 29.61 29.61 0 0 0 4.48 9.75c.36.49.75 1 1.16 1.42a2.83 2.83 0 0 0 .63.5.61.61 0 0 0 .74-.1.56.56 0 0 0 .15-.73 5.27 5.27 0 0 0-.58-.82 25.07 25.07 0 0 1-4.64-8.76 74.25 74.25 0 0 1-2.74-13.12c0-.34-.06-.68-.08-1-.05-1.08 0-1.13 1.08-1.22 2.58-.2 5.15-.37 7.72-.57a126.27 126.27 0 0 0 15.57-2.2c1.07-.22 2.13-.42 3.19-.65a1.28 1.28 0 0 1 1.4.56 27.37 27.37 0 0 0 4.65 4.54 23.52 23.52 0 0 0 8.31 4.18 1.57 1.57 0 0 1 1.4 1.62c.79 8.54 1.58 17.13 2.5 25.75Zm-2.84-29.07c-.3.36-.5.31-.68.26a25.45 25.45 0 0 1-11.95-7.68c-.35-.37-.2-.72.36-.84 2.57-.57 5.15-1.12 7.72-1.7.85-.2 1.69-.45 2.73-.73 1.29 3.55 1.46 7.19 1.82 10.64Zm-3.05-35.15c2.3 5.14 4.39 10.36 6.57 15.56a18.81 18.81 0 0 1 .67 1.91c.47 1.63.29 2.13-1.18 3-.8.5-1.66.92-2.51 1.35a37 37 0 0 1-8.89 2.82q-6.57 1.39-13.15 2.68A148.38 148.38 0 0 1 155 268a153.38 153.38 0 0 1-16.88.31 87.14 87.14 0 0 1-11.73-1.19c-.27 0-.54-.09-.8-.16-2.33-.64-2.68-.6-2.89-3.18a19.36 19.36 0 0 0-.53-2.58 53.14 53.14 0 0 1-1.09-7.85c-.34-5.29-.33-10.58-.39-15.87 0-.75 0-1.49.06-2.24a.73.73 0 0 1 .8-.73c2.92-.16 5.75-.91 8.63-1.34 3.63-.55 7.27-.86 10.93-1.08a43.3 43.3 0 0 0 4-.43 3.62 3.62 0 0 0 3.34-3.9 99.46 99.46 0 0 0-.77-14c-.31-2-.73-6.17-.74-6.23a24.26 24.26 0 0 1-.54-4c0-.33 0-.68.46-.45s.52.29.23 1.24a3.92 3.92 0 0 0 .54 2.8 2.59 2.59 0 0 0 2.16.16.69.69 0 0 1 1 .47 3.93 3.93 0 0 0 3.33 2.33 2.22 2.22 0 0 1 1.65 1 7.72 7.72 0 0 0 6.5 3.57h3.05a6.79 6.79 0 0 1 4 1.21 55.4 55.4 0 0 0 11 5.77 2.83 2.83 0 0 1 1.82 2 118.29 118.29 0 0 0 6.02 15.1ZM152 205.84a.76.76 0 0 1 .9-.2 3.69 3.69 0 0 1 1.93 2.68c0 .23-.14.35-.36.41-1.24-.21-2.32-.62-2.72-2a.74.74 0 0 1 .25-.89Zm45.69 20.32a22.77 22.77 0 0 1-5.7-1.41c-4.73-1.85-9.46-3.69-14.1-5.78a38.37 38.37 0 0 1-7.1-3.92 9 9 0 0 0-6.08-1.85 17.33 17.33 0 0 1-3.45-.19 6.54 6.54 0 0 1-4-2.28 3 3 0 0 1-.74-1.64 6.8 6.8 0 0 0-2.68-4.69c.6-.77 1.15-1.43 1.66-2.12a.51.51 0 0 0-.09-.72.51.51 0 0 0-.73-.09c-.36.3-.68.65-1 1a19.24 19.24 0 0 1-3.94 3.2c-.33.2-.71.44-1.13.15s-.35-.78 0-1.3a11 11 0 0 1 1.11-1.44c1-1.09 2.08-2.15 3.12-3.22.33-.34.67-.67 1-1a.6.6 0 0 0 0-.9.69.69 0 0 0-.93 0 7.69 7.69 0 0 0-1.07.91c-1 1-1.9 1.94-2.86 2.9-.51.5-.8.55-1.24.27s-.58-.68-.29-1.4a7.06 7.06 0 0 1 1.46-2.19c.9-.92 1.86-1.78 2.8-2.66.35-.32.73-.6 1-.95a.75.75 0 0 0-.41-1.26 6.42 6.42 0 0 0-3 .11 9.38 9.38 0 0 1-3 .25.58.58 0 0 1-.42-.9 2.33 2.33 0 0 1 1.43-1.08 36.38 36.38 0 0 1 4.39-.79 3.38 3.38 0 0 1 2.52 1.16 9.93 9.93 0 0 1 1.88 2.39 46.88 46.88 0 0 0 3.4 5.31 6.11 6.11 0 0 1 .91 1.8 8.2 8.2 0 0 0 3.19 4.35c1.27.9 2.51 1.84 3.83 2.67a118.31 118.31 0 0 0 10.92 6.15 49.25 49.25 0 0 0 12.74 4 83.47 83.47 0 0 1 10.69 2.43c.63.2 1.25.42 1.87.63-1.08 3.31-2.82 4.47-5.95 4.1Zm20.76 35.2a11.2 11.2 0 0 1-1.55 1 1.77 1.77 0 0 1-1.57.07 1.31 1.31 0 0 1-.89-1.42 7 7 0 0 1 .89-2.26c.59-1.06 1.21-2.11 1.76-3.2a16.56 16.56 0 0 0 1.5-10.87c-.62-3.27-1.47-6.48-2.28-9.7-.13-.52-.24-1.06-.39-1.57a6.55 6.55 0 0 1 1-6.17 3 3 0 0 0 .32-.73c.08-.23-.3-.58-.5-.43A1.33 1.33 0 0 1 215 226a44 44 0 0 0-10.67-4.91 83.53 83.53 0 0 0-13-3.14 49.84 49.84 0 0 1-17.2-6.48c-2.8-1.67-5.6-3.31-8.26-5.2-.5-.35-1-.7-1.49-1.07-2.91-2.21-3.75-5.19-3.12-8.67a16.44 16.44 0 0 1 2-4.89 55.54 55.54 0 0 1 4.52-6.75 86.34 86.34 0 0 1 6.87-8c3.44-3.57 6.93-7.08 10.42-10.6a45.62 45.62 0 0 1 4.83-4.05 1.58 1.58 0 0 1 1.67-.32c1.65.59 3.36 1 5 1.63a15.52 15.52 0 0 1 4.66 2.84 21.79 21.79 0 0 1 6.94 10.55 1.75 1.75 0 0 1-.46 2c-2.81 3-5.69 6-8.69 8.85a6.1 6.1 0 0 0-.52.62 18.45 18.45 0 0 1-4.9 4.46c-1.3.95-2.32 1-3.46-.35a29.1 29.1 0 0 0-5.7-4.84c7.82 5.82 12.44 14.65 19.78 20.93a16.57 16.57 0 0 0 4 2.76 41.57 41.57 0 0 0 10.81 4.58 6.79 6.79 0 0 1 3.05 1.56c1.12 1 2.26 2 3.37 3a12.46 12.46 0 0 1 3.73 6.4 15.06 15.06 0 0 1 .34 7c-.47 2.19-.83 4.4-1.25 6.59-.55 2.93-.89 5.9-1.63 8.8a22.58 22.58 0 0 1-8.18 12.06Zm-11.91-70.86c0-1.22-.17-2.44-.31-3.65a1.69 1.69 0 0 1 .67-1.76 6 6 0 0 0 .92-1.07c.49-.64.13-1.38.24-2.07.05-.36-.06-.82.56-.75a.63.63 0 0 0 .73.23c2.24-1.08 4.75-1.49 7-2.82a7.76 7.76 0 0 1 .44.8 93.59 93.59 0 0 1 3.47 12.3 75.51 75.51 0 0 1 1 9.71c.2 3.79.33 7.59.47 11.39a5 5 0 0 1-.2 2.21.48.48 0 0 1-.62.34 51.07 51.07 0 0 1-11.46-4.63c-.81-.47-1.84-.76-2.33-1.56s-.16-1.72-.18-2.6c-.17-5.35-.26-10.71-.4-16.07Zm-1.16 16.66c0 .33 0 .68-.35.87a9.84 9.84 0 0 1-4.27-3c-2.66-3-5.39-5.89-7.75-9.12-1-1.32-.86-2.18.53-2.92 1.84-1 3.07-2.86 5.1-3.59 1.69-1.56 3.92-2 6.06-2.85a3.46 3.46 0 0 1 .31 1.78q.18 7.18.33 14.37c.03 1.49.03 2.97.04 4.46Zm55.88 283.29a9 9 0 0 1-2.54 5l-.15.14a50.15 50.15 0 0 0-7.89 9 22.42 22.42 0 0 1-9.83 7.64 12.55 12.55 0 0 1-6.51 1.07 18.22 18.22 0 0 1-5.63-.94A9 9 0 0 1 226 511a3.76 3.76 0 0 1-1.55-3.16 8.24 8.24 0 0 1 1.05-3.84 21.64 21.64 0 0 1 2.22-3.16c1.45-1.79 2.89-3.6 4.32-5.4a46.92 46.92 0 0 0 8-16.12c.78-2.59 1.59-5.18 2.39-7.77.24-.76.4-.85 1.18-.65a37 37 0 0 0 4.78.94 22.89 22.89 0 0 0 9.67-.72c.72-.22.87-.14 1 .5a109.5 109.5 0 0 1 2.37 12.59 20.69 20.69 0 0 1-.17 6.24Zm8.71-27a10.7 10.7 0 0 0 2.23 8.6 24.57 24.57 0 0 0 13.47 8.95 29.86 29.86 0 0 0 6 .89c2.1.11 4.2.22 6.29.4a19.34 19.34 0 0 1 3.4.59c2.52.7 3 2.18 3.32 4.12a2.27 2.27 0 0 1-1.72 2.64 18.73 18.73 0 0 1-3 .7c-5.23.78-10.47 1.44-15.76 1.79-7.24.49-14.5.62-21.75.82a2.13 2.13 0 0 1-.4-.1c-.26-.21-.14-.49-.08-.72a22.92 22.92 0 0 0 .27-10.09 87.87 87.87 0 0 0-1.93-9.77 5.39 5.39 0 0 1 0-2.56c.55-2.65.85-5.35 1.3-8s0-2.33 2.84-2.59c1.62-.15 3.25-.26 4.87-.37h1.63a38.1 38.1 0 0 0-.95 4.7Zm33.88-184.77c.27 7.33.71 14.65.28 22-.18 2.91-.12 5.83-.44 8.74a109.73 109.73 0 0 1-3 15.78c-1.61 6.09-3 12.25-5 18.24-3 9-5.49 18.16-7.75 27.38-1.29 5.27-2.26 10.61-3.14 16q-1.15 7.18-1.8 14.49c-.32 3.37-.57 6.76-.93 10.13q-.63 5.78-1.4 11.52c-.57 4.3-1.24 8.59-1.83 12.89a180 180 0 0 1-3.48 18.59c-.75 3.05 0 2.38-3 2.83s-6.34.62-9.52.91c-.11 0-.24-.09-.5-.18.23-1.76.45-3.56.69-5.36l1.5-11.3c.5-3.77 1-7.81 1.42-11.71.36-3.1.7-6.21 1-9.31.66-6.42 1.29-12.83 2-19.24.78-7.56 1.66-15.11 2.22-22.69.32-4.2.93-8.37 1.4-12.55.44-4 .89-7.95 1.3-11.94q.57-5.56 1.07-11.14a130.67 130.67 0 0 0 .63-17.69c-.08-1.9-.26-3.8-.47-5.68-.51-4.52-1.26-9-2.1-13.47a10.69 10.69 0 0 0-.34-1.38.43.43 0 0 0-.5-.25.39.39 0 0 0-.33.42 15 15 0 0 0 .19 2c1 4.93 1.61 9.91 2.18 14.9.19 1.61.2 3.25.26 4.88a143.27 143.27 0 0 1-.78 17.69q-.65 7.19-1.42 14.38c-.57 5.19-1.25 10.37-1.81 15.57-.38 3.44-.61 6.89-.94 10.34-.46 4.66-1 9.31-1.44 14-.34 3.31-.69 6.61-1 9.92-.37 3.58-.72 7.16-1.09 10.73q-.66 6.28-1.34 12.55-.43 3.94-.95 7.88c-.48 3.77-.95 7.54-1.49 11.3-.72 5-1.5 9.93-2.26 14.89-.14.94-.29 1.88-.42 2.82a1.45 1.45 0 0 1-1.11 1.26 21.94 21.94 0 0 1-9.45.92 32.28 32.28 0 0 1-10.29-3 1.54 1.54 0 0 1-1.1-1.51c0-.54-.09-1.09-.07-1.63.14-3.18.15-6.37.45-9.55.51-5.34.94-10.69 1.47-16q.92-9.33 1.41-18.68c.32-6.3.43-12.62.64-18.93l.56-16.28c0-1 .09-1.9 0-2.85-.32-7.25-.37-14.52-1.15-21.75a99.37 99.37 0 0 0-2.63-14c-1.74-6.83-3.54-13.65-5.27-20.48-2.17-8.54-4.36-17.08-6.1-25.73a137.5 137.5 0 0 1-2.83-18.35c-.23-3.73-.62-7.44-.94-11.16-.06-.71 0-.93.82-1.16 2.86-.87 5.7-1.77 8.58-2.53 6.23-1.66 12.56-2.86 18.9-4a59.94 59.94 0 0 1 26.24.9 121.6 121.6 0 0 0 12 2.33 75.93 75.93 0 0 0 11.37.74h.81c.68 0 .82.12.91.81.29 2 .59 4 .81 6.05.14 1.58.24 3.14.3 4.7Zm1.15-32.61q0 3-.22 5.91a116.31 116.31 0 0 1-1.3 11.93c-.36 2.19-.52 2.34-2.78 2.27-2.57-.07-5.15-.26-7.72-.46-6-.47-11.9-2-17.8-3.27a54.81 54.81 0 0 0-15.16-1.32 96 96 0 0 0-11.7 1.51c-6.2 1.2-12.39 2.4-18.47 4.1-2.09.58-4.15 1.28-6.23 1.91-.73.22-1 .06-1.09-.71-.32-2.15-.61-4.3-.94-6.44a2.47 2.47 0 0 1 .74-2.2 23.46 23.46 0 0 0 5.83-12.12c.78-4.47 1.59-8.94 2.4-13.41a17.19 17.19 0 0 0-1.13-9.38 11.85 11.85 0 0 0-2.94-4.36 27.86 27.86 0 0 0-2.43-2.17 2.87 2.87 0 0 1-1.19-2.43c-.12-3.93-.25-7.87-.47-11.8a92.56 92.56 0 0 0-1-11.75 89 89 0 0 0-4.13-14.25 4.79 4.79 0 0 0-.35-.72c-.18-.31-.74-.37-.85-.07-.4 1.1-1.39 1.44-2.32 1.82-1.12.46-2.29.84-3.44 1.23a.48.48 0 0 1-.63-.35 2.57 2.57 0 0 1-.08-.4c-1-6.51-4.39-11.41-9.72-15.11a21 21 0 0 0-6.56-2.68c-2.6-.72-2.55-.63-1.24-3a38.56 38.56 0 0 1 10-11.72 45.69 45.69 0 0 1 13.43-7.94 39.9 39.9 0 0 1 11.49-2.4c1.15 0 2.3-.15 3.31-.21a91.46 91.46 0 0 1 9.26.86c2 .31 4 .7 6 1.17a3.91 3.91 0 0 1 2.57 1.83c.43.69.91 1.35 1.38 2a26.3 26.3 0 0 0 9.84 8.35 19.07 19.07 0 0 0 8 2 25.77 25.77 0 0 0 13.89-3.25 3 3 0 0 1 2.33-.34 21.17 21.17 0 0 1 5.18 1.78q4.14 2.18 8.31 4.32a30 30 0 0 1 11.16 9.89c1.19 1.73 2.4 3.46 3.59 5.2a74.52 74.52 0 0 0 6.92 8.53 28.37 28.37 0 0 0 5 4.45c.9.6.89.75 0 1.5-1.19 1-2.39 2-3.64 2.93-1 .73-1.95 1.47-2.86 2.29q-4.23 3.82-8.47 7.64a16.85 16.85 0 0 1-3.25 2.44.38.38 0 0 1-.61-.28 7.4 7.4 0 0 1-.08-.81c-.13-3.26-.34-6.51-.38-9.77s-.69-6.61-1.07-9.91a1.51 1.51 0 0 0-.18-.58c-.09-.16-.22-.36-.47-.23a.59.59 0 0 0-.28.26 3.7 3.7 0 0 0 0 1.81 100.59 100.59 0 0 1 1.1 14.84c.06 2.79.38 5.55.56 8.33.16 2.58.28 5.16.2 7.73-.24 7.62.25 15.21.65 22.8.21 4.07.15 8.14.04 12.21Zm.93-15.83c-.41-6.08-.7-12.17-.58-18.27.06-3.18-.09-6.37-.19-9.55a1.63 1.63 0 0 1 .82-1.68 39.7 39.7 0 0 0 4.23-3.22c1.25 1.1 2.45 2.18 3.66 3.24a1.25 1.25 0 0 1 .43 1.27c-.11.6-.11 1.21-.2 1.81-.58 3.68-1.24 7.34-1.74 11s-1.19 7.48-1.44 11.27a1.62 1.62 0 0 1-.52 1.25c-1.37 1.21-2.71 2.44-4.05 3.65-.49-.07-.35-.47-.35-.77Zm9.85-27.48c2.17 1.64 3.65 3.76 5.59 5.37 1.4.26 1.89 1.47 2.5 2.49.5.83-.17 1.4-.74 1.88-1.14.94-2.33 1.83-3.43 2.83a20.71 20.71 0 0 0-4.12 5.7 25.41 25.41 0 0 1-2 3.28c-.24.31-.45.7-1 .67.83-7.38 2.19-14.68 3.23-22.22Zm1.76 34.92a3.93 3.93 0 0 0-1.55 1.85 38.9 38.9 0 0 1-6 8.9c-1.25 1.52-2.45 3.08-3.67 4.61-.38 0-.39-.29-.38-.57.2-6 .34-12.07.14-18.11a3.1 3.1 0 0 1 1.13-2.49c1.29-1.2 2.54-2.46 3.91-3.57a19.83 19.83 0 0 0 5.48-6.72 23.23 23.23 0 0 1 4.1-5.79 5.13 5.13 0 0 0 .47-.65c1-2.31 2.93-3.44 5.15-4.18l.52-.18c-1.83.47-3.11-.6-4.94-3.46a71.51 71.51 0 0 0-7.73-7.74c-1-.89-2-1.79-2.95-2.63a1.7 1.7 0 0 1 .76-1.07c2-1.83 4-3.66 6-5.46.91-.81 1.9-1.52 2.85-2.29s1.88-1.54 2.82-2.32c.31-.26.59-.58 1.05-.48a.58.58 0 0 1 .36.36v.05a.53.53 0 0 1 .34.37l.06.06a.41.41 0 0 1 .33.35l.06.07a.43.43 0 0 1 .36.38q3.36 4 6.71 7.91a96.82 96.82 0 0 1 11.46 16 20.6 20.6 0 0 1 2 4.65 6.52 6.52 0 0 1-1.64 6.57 14.66 14.66 0 0 1-2.29 2 55.64 55.64 0 0 1-9.71 5.5c-1.88.79-3.72 1.64-5.58 2.46-3.34 1.56-6.39 3.72-9.59 5.62Zm20.35-6.05a14.26 14.26 0 0 0-4.57.84c-2.06.68-4.14 1.28-6.22 1.89-.39.11-.8.14-1.19.21s-.47 0-.26-.36a65.62 65.62 0 0 1 7.17-3.33 54.74 54.74 0 0 0 10.09-5.64 20.49 20.49 0 0 0 2.06-1.66 7.94 7.94 0 0 0 2.82-5c.11-1 .48-1 1.19-1a8.6 8.6 0 0 1 6 2.49 18.18 18.18 0 0 1 2.86 3.15c.12.19.15.39-.07.51a.42.42 0 0 1-.36 0c-.42-.22-.82-.48-1.24-.71a9.41 9.41 0 0 0-3.82-1.25 3.13 3.13 0 0 0-.81 0 .54.54 0 0 0-.46.57.65.65 0 0 0 .32.47 6.73 6.73 0 0 0 1.18.27 8.89 8.89 0 0 1 4.57 2.49 3.53 3.53 0 0 1 1.09 1.91.92.92 0 0 1-.44 1 1.3 1.3 0 0 1-1.14-.25c-.1-.07-.13-.23-.2-.34-1.5-2.65-4.06-3.64-6.81-4.32a.92.92 0 0 0-.59.06.63.63 0 0 0-.4.64.71.71 0 0 0 .28.49 6.21 6.21 0 0 0 1.16.33 9.27 9.27 0 0 1 3.3 1.51 4.24 4.24 0 0 1 1.74 2.19 2.37 2.37 0 0 1 .08.8.66.66 0 0 1-1 .54 5.5 5.5 0 0 1-1.66-1.46 6.9 6.9 0 0 0-2.42-2.13 3.71 3.71 0 0 0-4.2.29.64.64 0 0 0-.31.86.76.76 0 0 0 .85.39.73.73 0 0 0 .19-.07 2.49 2.49 0 0 1 2.32-.38 5.15 5.15 0 0 1 2.48 2.27 1.64 1.64 0 0 1-1.6-.21 4.9 4.9 0 0 0-4.49-.37 15.62 15.62 0 0 0-2.24.94 11.56 11.56 0 0 1-5.22 1.37Zm5 6.89a1.29 1.29 0 0 1-1.94.27.81.81 0 0 1-.4-1.18c.46-1 1-2.06 1.48-3.09a10.55 10.55 0 0 0 .81-1.61 2.22 2.22 0 0 1 1.46-1.54c1.18-.43 2.31-1.11 3.67-.81 0 .69-.49 1.11-.8 1.6-1 1.6-2 3.18-3.05 4.76a15.81 15.81 0 0 1-1.12 1.6Zm34.52 162.27c-2.21 5.32-4.37 10.65-6.53 16-1.87 4.58-3.77 9.15-5.55 13.76-1.19 3.09-2.17 6.26-3.29 9.38-.82 2.3-1.76 4.56-2.58 6.85-1.35 3.76-3 7.42-4 11.31a31.35 31.35 0 0 0-.8 4.81c-.33 3.64-.76 7.29-.92 10.95a63.31 63.31 0 0 0 .79 12.37 30.51 30.51 0 0 1 .23 5.89 4.59 4.59 0 0 1-3.37 4.35 9.72 9.72 0 0 1-4.81.54 5.63 5.63 0 0 1-4.84-5.23 10.7 10.7 0 0 1 .27-3c.58-2.72 1.58-5.32 2.4-8a44.12 44.12 0 0 0 1.78-8.54c.65-6.14 1.1-12.3 1.75-18.44.48-4.51 1.11-9 1.74-13.52.59-4.22 1.2-8.46 1.95-12.66s1.65-8.37 2.72-12.51c.72-2.82 1.38-5.66 2.09-8.49q.65-2.56 1.35-5.11c1-3.46 2.05-6.88 2.91-10.37a95.39 95.39 0 0 0 2.93-15.37 54.26 54.26 0 0 0-1.6-19.37 67.08 67.08 0 0 0-4-10.43 127.84 127.84 0 0 1-6.41-15.58c-.16-.5-.23-1-.37-1.68 1.51-.13 2.92-.26 4.33-.37 1.63-.13 3.26-.21 4.88-.37 3-.29 6-.43 8.94-.5s6.24-.25 9.35-.45a1.63 1.63 0 0 1 1.74 1 32.59 32.59 0 0 1 3.59 10.74c.53 2.94 1 5.9 1.39 8.85a99.14 99.14 0 0 1 1.36 18.4v1.63a47.19 47.19 0 0 1-1.36 12.37 49.88 49.88 0 0 1-2.75 8.5c-1.72 4.08-3.53 8.17-5.24 12.29Zm30.12-75.17c-.11 3.82-.93 7.54-1.41 11.31-.45 3.56-1.16 7.09-1.71 10.64-.21 1.34-.3 2.7-.45 4.05-.49 4.44-.8 8.93-1.53 13.34-1.49 8.9-1.11 17.86-1.25 26.82s-.19 17.79-.49 26.68c-.29 8.61-.82 17.22-1.51 25.82-.49 6.16-1.26 12.28-2.15 18.39a45.74 45.74 0 0 0 0 12.8c.45 3.22.91 6.45 1.3 9.68a16.5 16.5 0 0 1 0 4.27 6 6 0 0 1-5.88 4.91 3.82 3.82 0 0 1-2.45-.84 8.46 8.46 0 0 1-3.55-5.91 61.81 61.81 0 0 1-.34-7.93c0-2 .19-4.06.27-6.1a194.94 194.94 0 0 0-.36-22.8q-.35-4.37-.52-8.74c-.22-5.43-.73-10.84-1.42-16.22s-1.28-10.92-2.37-16.31c-.53-2.59-1.13-5.17-1.75-7.74a5.44 5.44 0 0 1 .28-3.74c1.63-3.64 3.19-7.33 4.63-11.05a50.51 50.51 0 0 0 3.42-17.48v-6.72a102.83 102.83 0 0 0-1.29-16.62c-.4-2.75-.92-5.49-1.35-8.23a28.9 28.9 0 0 0-3.33-9.76c-.7-1.24-.61-1.38.71-1.45a137.05 137.05 0 0 0 19.11-2.69c1.86-.35 3.67-.92 5.65-1.42a13 13 0 0 1-.19 3.04Zm-2.66-76.32c.58 1.95 1.18 3.9 1.65 5.88 1.52 6.39 3.06 12.79 4.43 19.21 1 4.44 1.59 8.95 2.15 13.46a142.19 142.19 0 0 1 .94 17.86 91.05 91.05 0 0 1-.16 9.59c0 .33-.07.67-.06 1a3.87 3.87 0 0 1-2.65 3.72 20.85 20.85 0 0 1-2.7.9 104.45 104.45 0 0 1-10.47 2.4c-3 .59-6 1.16-9 1.45-1.76.17-3.51.43-5.27.54-6 .37-12.05.78-18.1.92-3.11.07-6.23.32-9.34.58q-4 .33-7.93.3a17.36 17.36 0 0 1-3.22-.46 1.61 1.61 0 0 1-1.21-1 44 44 0 0 1-3.76-9.85 112.93 112.93 0 0 1-2.4-17.93c-.14-2.17-.24-4.34-.43-6.5a87.08 87.08 0 0 1 .18-12.82 91.43 91.43 0 0 1 1.63-12.09 71.66 71.66 0 0 1 3-9.92c.49-1.4 1-2.82 1.48-4.22.29-.79.49-.87 1.19-.53a26.42 26.42 0 0 0 8.63 2.22 144.34 144.34 0 0 0 22.77.88 89.67 89.67 0 0 0 14.31-1.85c2.59-.54 5.19-1 7.76-1.67A16.07 16.07 0 0 0 404 249c.44-.36.78-.23.94.3Zm-3-12c.53 1.68 1.19 3.31 1.77 5a10 10 0 0 1 .63 3.38 2 2 0 0 1-.88 1.73 14.58 14.58 0 0 1-4.32 2.2 103 103 0 0 1-11.53 2.4c-2.74.45-5.49.92-8.25 1.17-3.1.28-6.23.32-8.09.41a134.65 134.65 0 0 1-15.26-.93 59.52 59.52 0 0 1-7-1 14.67 14.67 0 0 1-3.09-1 2.63 2.63 0 0 1-1.65-2.34 28.65 28.65 0 0 1 .33-6.28c.07-.47.24-.92.28-1.39a8.69 8.69 0 0 1 1.63-4.48c1-1.38 1.85-2.83 2.77-4.25a.85.85 0 0 1 1-.44 3.13 3.13 0 0 0 2.56-.1c.25-.14.51.05.76.12 1.73.52 2 .44 3.08-1a1 1 0 0 1 .83-.44 3.08 3.08 0 0 0 .61 0 2.05 2.05 0 0 0 1.8-2.11 2.69 2.69 0 0 0-.38-1.76c-.44-.61-.63-1.11.06-1.72a1 1 0 0 0 0-1.32 13 13 0 0 0-1.68-2.29c-.74-.8-.73-.92-.11-1.73q1.65-2.19 3.34-4.35c.67-.84 1.38-1.65 2.07-2.48 1 .35 2 .73 3 1.05a20.32 20.32 0 0 0 12 .1c.39-.12.78-.23 1.16-.38a1.07 1.07 0 0 1 1.13.21c.89.73 1.84 1.39 2.68 2.18a11.55 11.55 0 0 0 4.54 2.6 54.36 54.36 0 0 1 10.11 4.71 2.15 2.15 0 0 1 1.24 1.9 45.39 45.39 0 0 0 1.41 7.58c.52 1.75.96 3.42 1.48 5.1Zm20.91-13.64a3.94 3.94 0 0 1-2.22 2.71 9.19 9.19 0 0 1-3.34.8 24.07 24.07 0 0 1-6.66-.59 40.15 40.15 0 0 1-11.4-4.73 54 54 0 0 0-6.63-3.53c-1.38-.57-2.77-1.08-4.18-1.57a12.88 12.88 0 0 1-3.86-2.21c-3-2.43-6.06-4.8-8.82-7.51-1.6-1.57-3.34-3-5-4.49-.38-.34-.86-.64-.91-1.24a.88.88 0 0 1 1 .1c1.14.59 2.29 1.16 3.4 1.82 1.63 1 3.22 2 4.83 3a1.14 1.14 0 0 0 1.14.21.52.52 0 0 0 .28-.65 3.52 3.52 0 0 0-1.22-1.05c-2.24-1.4-4.37-3-6.74-4.17a7.84 7.84 0 0 1-2.67-2.15.44.44 0 0 1-.1-.37.35.35 0 0 1 .48-.19 13.15 13.15 0 0 1 3.52 1.47c1.46 1.09 3.07 2 4.64 2.93.65.4 1.24.31 1.4-.15s-.27-.85-.67-1.1c-2-1.27-3.9-2.7-6-3.8a2.71 2.71 0 0 1-1.28-1c-.05-.08.05-.35.06-.35 1 .1 2.08-.35 3.08.47 1.35 1.13 2.84 2.08 4.28 3.09a5.15 5.15 0 0 0 .89.49.68.68 0 0 0 .88-.28.74.74 0 0 0-.16-.94c-.58-.45-1.22-.85-1.83-1.27a25.75 25.75 0 0 1-3.47-2.41l-.67-.67a2.05 2.05 0 0 1 1.81.09 18.88 18.88 0 0 1 3.72 2.09 57.62 57.62 0 0 1 8.25 7.2 32.78 32.78 0 0 1 5 6.66c.61 1.13 1.14 2.31 1.7 3.47.09.18.16.37.24.56a.82.82 0 0 0 .93.6c.43-.07.62-.53.44-1.16s-.4-1.15-.65-1.86a43.8 43.8 0 0 1 16.62 3.46c1.75.71 3.42 1.63 5.12 2.46a2.66 2.66 0 0 0 1.31.49.86.86 0 0 0 .53-.26.52.52 0 0 0-.05-.73 6.77 6.77 0 0 0-1-.72 25.18 25.18 0 0 0-5.87-2.76 4.41 4.41 0 0 1-2.55-2.16 18.19 18.19 0 0 1-2.29-5.83c-.67-3.13-.78-6.33-1.18-9.49a.46.46 0 0 1 .47-.53 35 35 0 0 0 11.88-3.91 1.6 1.6 0 0 1 .39-.05 1 1 0 0 1 .39.89 62.16 62.16 0 0 0 1.78 8.34 66.85 66.85 0 0 1 1.57 10c.13 1.62.17 3.25.22 4.88a24.41 24.41 0 0 1-.8 7.65Z"></path><path d="M292.47 48.21a3.78 3.78 0 0 0 0 .75 3.78 3.78 0 0 1 0-.75ZM292.45 48.14a.65.65 0 0 0-.17-.16.65.65 0 0 1 .17.16ZM291.67 48.06A.65.65 0 0 1 292 48a.65.65 0 0 0-.35.1 1 1 0 0 0-.32.68 1 1 0 0 1 .34-.72ZM291.43 50.05a2.17 2.17 0 0 0 .58 1 2.17 2.17 0 0 1-.58-1ZM293.14 50.68a3.18 3.18 0 0 1-.68-1.72 3.18 3.18 0 0 0 .68 1.72ZM293.18 51.39a.73.73 0 0 0 .16-.36.73.73 0 0 1-.16.36ZM292.05 51.07a2.32 2.32 0 0 0 .55.38.57.57 0 0 0 .27.06.57.57 0 0 1-.27-.06 2.32 2.32 0 0 1-.55-.38ZM231.78 54.48a3.56 3.56 0 0 1-.06-.86 3.56 3.56 0 0 0 .06.86ZM233.12 55.72a.72.72 0 0 0 0-.39.72.72 0 0 1 0 .39ZM232.87 55.92a.39.39 0 0 0 .25-.2.39.39 0 0 1-.25.2ZM232.4 55.82a.68.68 0 0 0 .42.12.68.68 0 0 1-.42-.12ZM232.86 52.83ZM254 48.86a.6.6 0 0 0-.06-.19.79.79 0 0 0-.12-.15.79.79 0 0 1 .12.15.6.6 0 0 1 .06.19ZM252.66 50.48a2.36 2.36 0 0 1 .65-2 .24.24 0 0 1 .17-.06.24.24 0 0 0-.17.06 2.36 2.36 0 0 0-.65 2ZM253.91 52.45a.55.55 0 0 1-.57-.1.55.55 0 0 0 .57.1.61.61 0 0 0 .18-.1.61.61 0 0 1-.18.1ZM252.72 51.1a1.59 1.59 0 0 1-.06-.37 1.59 1.59 0 0 0 .06.37 6 6 0 0 0 .49 1.1.64.64 0 0 0 .13.15.64.64 0 0 1-.13-.15 6 6 0 0 1-.49-1.1ZM232.78 53.72s0-.02 0 0ZM232.48 52.07a.26.26 0 0 1 .15 0 .26.26 0 0 0-.15 0c-.17 0-.44.11-.48.23a6 6 0 0 0-.23.88 6 6 0 0 1 .23-.88c0-.12.31-.21.48-.23ZM254 51.26a2.79 2.79 0 0 0 .2.55.45.45 0 0 1 0 .11.45.45 0 0 0 0-.11 2.79 2.79 0 0 1-.2-.55ZM272.82 48.3a5.46 5.46 0 0 0 .54 2.14.39.39 0 0 1 0 .28.39.39 0 0 0 0-.28 5.46 5.46 0 0 1-.54-2.14ZM271.74 47.92a4 4 0 0 0 0 .61 3.42 3.42 0 0 0 .53 2.11 3.42 3.42 0 0 1-.53-2.11 4 4 0 0 1 0-.61ZM253.84 50.45ZM272 47.34a.76.76 0 0 1 .54-.17.45.45 0 0 1 .27.1.45.45 0 0 0-.27-.1.76.76 0 0 0-.54.17.46.46 0 0 0-.08.13.46.46 0 0 1 .08-.13Z"></path><path fill="#f38704" d="M230.29 136.08a91.46 91.46 0 0 1 9.26.86c2 .31 4 .7 6 1.17a3.91 3.91 0 0 1 2.57 1.83c.43.69.91 1.35 1.38 2a26.3 26.3 0 0 0 9.84 8.35 19.07 19.07 0 0 0 8 2 25.77 25.77 0 0 0 13.89-3.25 3 3 0 0 1 2.33-.34 21.17 21.17 0 0 1 5.18 1.78q4.14 2.18 8.31 4.32a30 30 0 0 1 11.16 9.89c1.19 1.73 2.4 3.46 3.59 5.2a74.52 74.52 0 0 0 6.92 8.53 28.37 28.37 0 0 0 5 4.45c.9.6.89.75 0 1.5-1.19 1-2.39 2-3.64 2.93-1 .73-1.95 1.47-2.86 2.29q-4.23 3.82-8.47 7.64a16.85 16.85 0 0 1-3.25 2.44.38.38 0 0 1-.61-.28 7.4 7.4 0 0 1-.08-.81c-.13-3.26-.34-6.51-.38-9.77s-.69-6.61-1.07-9.91a1.51 1.51 0 0 0-.18-.58c-.09-.16-.22-.36-.47-.23a.59.59 0 0 0-.28.26 3.7 3.7 0 0 0 0 1.81 100.59 100.59 0 0 1 1.12 14.84c.06 2.79.38 5.55.56 8.33.16 2.58.28 5.16.2 7.73-.24 7.62.25 15.21.65 22.8.21 4.07.15 8.14.07 12.22q0 2.94-.22 5.9a116.31 116.31 0 0 1-1.3 11.93c-.36 2.19-.52 2.34-2.78 2.27-2.57-.07-5.15-.26-7.72-.46-6-.47-11.9-2-17.8-3.27a54.81 54.81 0 0 0-15.16-1.32 96 96 0 0 0-11.7 1.51c-6.2 1.2-12.39 2.4-18.47 4.1-2.09.58-4.15 1.28-6.23 1.91-.73.22-1 .06-1.09-.71-.32-2.15-.61-4.3-.94-6.44a2.47 2.47 0 0 1 .74-2.2 23.46 23.46 0 0 0 5.83-12.12c.78-4.47 1.59-8.94 2.4-13.41a17.19 17.19 0 0 0-1.13-9.38 11.85 11.85 0 0 0-2.94-4.36 27.86 27.86 0 0 0-2.43-2.17 2.87 2.87 0 0 1-1.19-2.43c-.12-3.94-.25-7.87-.47-11.8a92.56 92.56 0 0 0-1-11.75 89 89 0 0 0-4.13-14.25 5.42 5.42 0 0 0-.35-.73c-.18-.3-.74-.36-.85-.06-.4 1.1-1.39 1.44-2.32 1.82-1.12.46-2.29.84-3.44 1.23a.48.48 0 0 1-.63-.35 2.57 2.57 0 0 1-.08-.4c-1-6.51-4.39-11.41-9.72-15.11a21 21 0 0 0-6.56-2.68c-2.6-.72-2.55-.63-1.24-3a38.56 38.56 0 0 1 10-11.72 45.69 45.69 0 0 1 13.43-7.94 39.9 39.9 0 0 1 11.46-2.4c1.13-.05 2.28-.15 3.29-.21Z"></path><path d="M384.38 96.38a20.2 20.2 0 0 0-.38-7.48 26.78 26.78 0 0 0-3.9-8.67 37.7 37.7 0 0 0-4.44-5 16.53 16.53 0 0 0-5.07-3.68l-1.83-.88a22.18 22.18 0 0 0-13.37-2.42 18.81 18.81 0 0 0-10.19 4.64 34.39 34.39 0 0 0-8.6 12.19 30 30 0 0 0-2 6.79 26.1 26.1 0 0 0 1.88 14.72 2.61 2.61 0 0 1 .23 1.56c-.53 3 .44 5.76 1.9 8.35a5 5 0 0 0 2.42 2.37 1.35 1.35 0 0 0 .42-1.47 12.61 12.61 0 0 0-1.34-2.51 11.14 11.14 0 0 1-1.46-5c0-1.12.3-2 1.66-1.49 1.76.65 2.67-.21 3.36-1.66a9.73 9.73 0 0 0 1.08-2.84c.31-2.41 1.7-3.29 4-3.74 5.33-1 10.54-2.54 15-5.84a45.54 45.54 0 0 0 4.63-4.32c.76-.74 1.34-.81 1.86.24a17.27 17.27 0 0 0 2.23 3.15 13 13 0 0 1 3.21 6.89c.18 1.76 1.06 2.08 2.43.92 1.18-1 1.74-.55 2.28.59a10.42 10.42 0 0 1 .68 6.35c.21.77.55 1.39 1.5 1.33a11.22 11.22 0 0 0 .21-7.37 1.91 1.91 0 0 1 .09-1.33 19.4 19.4 0 0 0 1.51-4.39ZM342 103.83a.43.43 0 0 1-.33.12.46.46 0 0 1-.32-.21 2.82 2.82 0 0 1 .33-2.28c0-.08.24-.11.36-.1a.43.43 0 0 1 .31.18 2.34 2.34 0 0 1 .12.53c-.19.62-.02 1.29-.47 1.76Zm.76-15.67a48.81 48.81 0 0 1-1.31 6.56 29.57 29.57 0 0 1-1 2.86.74.74 0 0 1-.55.54.68.68 0 0 1-.38-.05c-.11-.06-.24-.19-.24-.28a1.91 1.91 0 0 1 .15-.58 32.86 32.86 0 0 0 2.11-8.44 21.18 21.18 0 0 1 3.77-10 18 18 0 0 1 9.26-6.77 3.08 3.08 0 0 1 .61-.07 1.5 1.5 0 0 1 1.38-.32 1.73 1.73 0 0 1 1.61.07l.27.14-.22.21c-.28.59-.78.34-1.22.31a17.53 17.53 0 0 0-9.79 5.78 18.72 18.72 0 0 0-4.49 10.04Zm22.7-3.86a32.77 32.77 0 0 1-10.66 10.36 30.66 30.66 0 0 1-7.26 3.06 4.63 4.63 0 0 1-1 .14c-.1 0-.22-.14-.3-.24a.32.32 0 0 1 .14-.5 14.13 14.13 0 0 1 1.67-.66 28.38 28.38 0 0 0 7.14-3.34 32.92 32.92 0 0 0 8.47-8.05c.4-.54.85-1 1.29-1.54a.45.45 0 0 1 .38-.06c.11 0 .17.18.29.32a2.08 2.08 0 0 1-.2.51Zm13.92 8.09a.43.43 0 0 1-.38.4.46.46 0 0 1-.5-.23 2 2 0 0 1-.22-.76 19.33 19.33 0 0 0-.76-4 13.09 13.09 0 0 0-5.19-7.5c-1.8-1.31-3.68-2.54-6-2.68a.39.39 0 0 1-.4-.35c-.06-.33.16-.47.45-.52a3.78 3.78 0 0 1 1.8.2 15.89 15.89 0 0 1 3.33 1.46 15.61 15.61 0 0 1 6.45 7.07 22.2 22.2 0 0 1 1.5 5.89 7.76 7.76 0 0 1-.12 1.02Z"></path><path fill="#130f0f" d="M357.47 108.13a1.63 1.63 0 0 0-.72-1.17 2 2 0 0 0-2.45-.22 1.89 1.89 0 0 0-.93 2.08 5.32 5.32 0 0 0 .56 1.73c.88 1.62 2.17 1.67 3.49.19a2.22 2.22 0 0 0 .05-2.61Zm-1.65 1.55a.63.63 0 0 1-.51.2 1.48 1.48 0 0 1-1-1.53c.05-.29.49-.64.73-.59a1.37 1.37 0 0 1 .78 1.92Zm1.42.08c-.12.24-.42.17-.66.1 0-.32 0-.6.37-.7.15.18.42.36.29.6Z"></path><path d="M328.25 210.19a8.52 8.52 0 0 0 1.9-1.27 16.94 16.94 0 0 1-1.9 1.27Z"></path><path fill="#0c0b0b" d="M227.81 1.5c2.07 4.33 4.36 8.54 6.7 12.73q2.3 4.07 4.61 8.13a8 8 0 0 0 1.32 2 .8.8 0 0 1 .25.53.72.72 0 0 1-.27.51.62.62 0 0 1-.56 0 6.21 6.21 0 0 1-.86-1.11c-4-7-8.12-13.93-11.67-21.17-.26-.53-.75-1-.33-1.68Z"></path><path fill="#0d0d0d" d="M289.33 1.5a3.38 3.38 0 0 1-.14 2c-1.49 5.84-2.59 11.75-3.53 17.7-.18 1.13-.32 2.27-.49 3.4a.5.5 0 0 1-.53.49.56.56 0 0 1-.53-.53 4.18 4.18 0 0 1 0-1A200.9 200.9 0 0 1 288 3.64c.18-.72.37-1.43.56-2.14Z"></path><path fill="#080505" d="M151.2 26.77a3.12 3.12 0 0 1 1.54.44 233.37 233.37 0 0 1 28.07 12.31c6.58 3.35 13.06 6.89 19.58 10.36.9.47 1.76 1 2.61 1.57a1.69 1.69 0 0 1 .49.62.41.41 0 0 1-.1.35.56.56 0 0 1-.34.17.75.75 0 0 1-.38-.13 75.24 75.24 0 0 0-6.78-3.69c-5.57-2.94-11.1-6-16.73-8.8a237.44 237.44 0 0 0-25.84-11.34 6.78 6.78 0 0 1-2.32-1.11c-.11-.1-.11-.38-.09-.56s.17-.13.29-.19Z"></path><path fill="#080606" d="M325.66 42.87c-.2 0-.47-.44-.38-.63a3.72 3.72 0 0 1 .38-.71c.87-1.13 1.72-2.27 2.62-3.37a288.75 288.75 0 0 1 25.3-27.27c1.13-1.08 2.25-2.16 3.33-3.29a33.53 33.53 0 0 0 4.85-5.45.43.43 0 0 1 .53-.18c.33.1.37.36.36.63a2.3 2.3 0 0 1-.65 1.26c-.57.67-1.14 1.34-1.77 2-3.45 3.45-6.9 6.91-10.39 10.32a253.32 253.32 0 0 0-18.05 19.59c-1.9 2.29-4 4.46-5.65 6.93a.4.4 0 0 1-.48.17Z"></path><path fill="#f38909" d="M381.3 108.4a4.13 4.13 0 0 0 1.27 1.08 3.21 3.21 0 0 1 .46 3.39 3.11 3.11 0 0 1-2.38 1.93c-.58.1-1.17.15-1.76.22l-1.47-.69a3.83 3.83 0 0 1-1-5.57c1.21-1.66 2.88-1.76 4.88-.36Z"></path><path fill="#f38807" d="M341 118.86c.05-.54.1-1.09.14-1.63a2.91 2.91 0 0 1 2.78-2.48 3.88 3.88 0 0 1 3.76 2.26 2.94 2.94 0 0 1-.49 3.85c-1 .69-1.91 1.52-3.24 1.39-.3-.15-.59-.32-.9-.45a3.2 3.2 0 0 1-2.05-2.94Z"></path><path fill="#0e0d0d" d="M266.44 26.84c.16-2.8.32-5.57.48-8.33a2.06 2.06 0 0 1 .37-1.34.55.55 0 0 1 .71-.17.62.62 0 0 1 .3.46 89.85 89.85 0 0 0-.58 11.12v7.7a.48.48 0 0 1-.49.53.6.6 0 0 1-.55-.5 7.47 7.47 0 0 1-.19-1.41c0-1.69-.06-3.38-.08-5.07.02-.99.03-2 .03-2.99Z"></path><path fill="#0d0b0b" d="M229.52 42.6c-.14.24-.24.47-.48.38a2.77 2.77 0 0 1-.86-.47c-1.07-.94-2.15-1.87-3.15-2.87-2.2-2.2-4.35-4.45-6.53-6.67-.95-1-1.92-1.91-2.88-2.86-.26-.24-.48-.49-.29-.86s.67-.27 1.07.05a13.61 13.61 0 0 1 1.21 1.07c.82.8 1.63 1.62 2.43 2.45 2.78 2.86 5.57 5.72 8.52 8.41a6.27 6.27 0 0 1 .83.88c.11.13.1.36.13.49Z"></path><path fill="#0f0e0e" d="M308.06 27.76a2.75 2.75 0 0 1-.11.69A57.63 57.63 0 0 1 303 40.22c-.23.4-.42.87-.9 1.06a.53.53 0 0 1-.39 0 .56.56 0 0 1-.21-.33c-.15-.52.2-.9.43-1.3a71.37 71.37 0 0 0 3.91-8.7c.39-1 .68-2.05 1-3.08a2 2 0 0 1 .2-.57c.15-.2.32-.47.65-.31s.37.22.37.77Z"></path><path fill="#f38704" d="M414.11 305.71a91.05 91.05 0 0 1-.16 9.59c0 .33-.07.67-.06 1a3.87 3.87 0 0 1-2.65 3.72 20.85 20.85 0 0 1-2.7.9 104.45 104.45 0 0 1-10.54 2.4c-3 .59-6 1.16-9 1.45-1.76.17-3.51.43-5.27.54-6 .37-12.05.78-18.1.92-3.11.07-6.23.32-9.34.58q-4 .33-7.93.3a17.36 17.36 0 0 1-3.22-.46 1.61 1.61 0 0 1-1.21-1 44 44 0 0 1-3.76-9.85 112.93 112.93 0 0 1-2.4-17.93c-.14-2.17-.24-4.34-.43-6.5a87.08 87.08 0 0 1 .18-12.82 91.43 91.43 0 0 1 1.63-12.09 71.66 71.66 0 0 1 3-9.92c.49-1.4 1-2.82 1.48-4.22.29-.79.49-.87 1.19-.53a26.42 26.42 0 0 0 8.63 2.22 144.34 144.34 0 0 0 22.77.88 89.67 89.67 0 0 0 14.31-1.85c2.59-.54 5.19-1 7.76-1.67A16.07 16.07 0 0 0 404 249c.41-.31.75-.18.91.35.58 1.95 1.18 3.9 1.65 5.88 1.52 6.39 3.06 12.79 4.43 19.21 1 4.44 1.59 8.95 2.15 13.46a142.19 142.19 0 0 1 .97 17.81ZM159.58 197.55a11.73 11.73 0 0 1-1.81-2.85 10.77 10.77 0 0 0-2.49-3.44 5 5 0 0 0-4.85-1.44 4.31 4.31 0 0 1-1 .23 7.32 7.32 0 0 0-4.6 1.64c-.54-.29-.48-.74-.54-1.12-.44-3.16-.87-6.32-1.33-9.47a11.2 11.2 0 0 0-.43-2 3.71 3.71 0 0 0-3.78-2.82 39.19 39.19 0 0 0-5.08.24c-4 .48-7.93 1.07-11.89 1.62-.4.06-.81.12-1.21.15s-.74-.27-.63-.79a21.7 21.7 0 0 1 .67-2.55c.42-1.15.94-2.25 1.41-3.38a11 11 0 0 0 .47-1.12.51.51 0 0 0-.34-.64.8.8 0 0 0-.57 0 2.07 2.07 0 0 0-.88 1.09 20.4 20.4 0 0 0-2.12 6.54c-.1 1-.21 1.16-1.22 1.21-1.43.08-2.85.08-4.28.15a6.54 6.54 0 0 1-2.76-.61 43.45 43.45 0 0 1-7-3.68c-.7-.45-.78-.66-.54-1.55.52-2 1.11-3.91 1.63-5.88 1.05-4.08 2.2-8.08 3.59-12.08a26.6 26.6 0 0 1 1.9-4.26 10.89 10.89 0 0 1 4.65-4.42 37.42 37.42 0 0 1 5.47-2.2 85.62 85.62 0 0 1 9.43-2.51 66.4 66.4 0 0 0 7.08-1.95c.36.68 0 1.25-.11 1.8-.67 3.12-1.38 6.22-2.09 9.33a10.39 10.39 0 0 0-.18 3.24c.09 1 .3 1.94 1.35 2.32a2.24 2.24 0 0 0 2.51-.91 24.05 24.05 0 0 0 1.74-2.25c1-1.38 1.89-2.82 2.9-4.18a8 8 0 0 1 3-2.68 3.08 3.08 0 0 1 .58 1.77 53 53 0 0 0 1.29 8 4.51 4.51 0 0 1 0 2.22c-.93 3.68-1.57 7.43-2.2 11.17-.21 1.27-.3 2.56-.41 3.84a4.52 4.52 0 0 0 .12 1.21.74.74 0 0 0 .64.68c.35 0 .67-.31.69-.84.2-5.45 1.6-10.72 2.55-16.05a11.71 11.71 0 0 1 .62-2.15 44.79 44.79 0 0 1 4.86-8.75c.65-.14.89.24 1.17.49a13.15 13.15 0 0 1 3.75 5.72 12.28 12.28 0 0 0 .72 1.89 1.33 1.33 0 0 0 2.08.47 7.73 7.73 0 0 0 1.19-1.1 15.25 15.25 0 0 0 2.61-4.11 30.37 30.37 0 0 0 2.16-7 1.77 1.77 0 0 1 .53-1.33c.56.33 1.15.65 1.72 1a23.84 23.84 0 0 0 8.88 3.39c2.14.35 4.26.81 6.38 1.26a28.45 28.45 0 0 1 6.15 2.1 9.75 9.75 0 0 1 2.22 1.42c.58.52.6.72.18 1.38-.85 1.3-1.72 2.6-2.54 3.93a9.72 9.72 0 0 0-1.34 3 2.23 2.23 0 0 1-1 1.45c-.73.49-1.41 1.06-2.12 1.58s-1 .2-1.14-.51a4.06 4.06 0 0 1 .65-3.11c.56-.84 1.2-1.64 1.82-2.44.26-.34.49-.66.21-1.09s-.74-.3-1.2.24a19.59 19.59 0 0 0-2 2.55c-1 1.7-1.5 3.5-.34 5.36a.52.52 0 0 1-.09.71c-.37.4-.79.75-1.17 1.13-4.3 4.35-8.7 8.58-12.74 13.18a81 81 0 0 0-8 10.54 21.43 21.43 0 0 0-3.16 7.44c-.06.15-.18.25-.39.58ZM254.18 55.05l5.11 4.26 5.14 4.32c.26.21.51.44.78.65.63.47.93.44 1.36-.15.28-.38.53-.78.78-1.19q2.46-3.86 4.91-7.73c.29-.45.61-.89.9-1.32.65.13.92.63 1.28 1l6.92 7.47c.32.35.63.71 1 1 .53.51.83.52 1.39 0 1.92-1.92 3.82-3.86 5.74-5.78.81-.82 1.63-1.64 2.45-2.44a.37.37 0 0 1 .6.22q.44 3.84.85 7.69.57 5.35 1.15 10.72v.2c.18 2.07.29 2-1.8 2.08-9.23.28-18.45.6-27.67.91a31.08 31.08 0 0 1-6.1 0 6.31 6.31 0 0 0-1.62 0c-4.26.41-8.53.56-12.81.65-2 .05-4.06.17-6.1.25h-2a.67.67 0 0 1-.7-.61c-.06-.4-.08-.8-.11-1.21-.11-1.49-.22-3-.32-4.46-.26-3.8-.5-7.59-.75-11.38 0-.19 0-.42.25-.47a.52.52 0 0 1 .37.05c.4.26.79.54 1.17.82 2.3 1.68 4.6 3.37 6.9 5 1.59 1.15 1.6 1.15 2.85-.47 1.08-1.4 2.14-2.8 3.21-4.2l3.83-5a2.48 2.48 0 0 1 1.04-.88ZM171.87 478.87a4 4 0 0 1-1 2.87 9.73 9.73 0 0 1-1.34 1.23 39.52 39.52 0 0 1-11.53 6.34c-1.93.63-3.89 1.19-5.78 1.94a6.37 6.37 0 0 1-5.66-.52 15.89 15.89 0 0 1-3.8-3 .58.58 0 0 1 .06-1 29.27 29.27 0 0 0 4.11-4.22c1.81-2 3.75-3.92 5.73-5.78a18.63 18.63 0 0 0 3.45-3.7c.24-.38.55-.62 1-.46a8.51 8.51 0 0 1 3.82 2.61 4.56 4.56 0 0 1 .94 2.85c0 .68 0 1.42.79 1.72s1.16-.27 1.6-.67a26 26 0 0 1 3.81-2.7 10.15 10.15 0 0 1 1.25-.69c1.52-.71 1.83-.56 2.18 1.07.12.53.2 1.07.29 1.61.05.15.06.35.08.5ZM208 466.72c.13 0 .6.06 1.07.07a1.83 1.83 0 0 1 1.9 1.47 28.71 28.71 0 0 0 2.37 5.17c1.12 2.1 2.21 4.2 3.25 6.34a9.76 9.76 0 0 1 1 3.07c.07.52-.2.76-.73.56a24 24 0 0 0-6.14-1.37 13.31 13.31 0 0 0-10.1 2.85 37.42 37.42 0 0 0-3.11 2.93.41.41 0 0 1-.36 0 .45.45 0 0 1-.24-.28 4.61 4.61 0 0 1 .1-1.81c.56-2.86 1.21-5.71 1.54-8.61.2-1.76.47-3.5.57-5.26A4.39 4.39 0 0 1 202 468a13.89 13.89 0 0 1 6-1.28ZM355.49 167.6c-.39-.16-.5-.49-.66-.79a26.6 26.6 0 0 1-1.93-4.69 79.36 79.36 0 0 1-2.19-8 32 32 0 0 1-.39-4.25.83.83 0 0 1 .63-.91 35.13 35.13 0 0 1 4.31-1.17 1.25 1.25 0 0 1 1.36.62 51.52 51.52 0 0 1 4.39 6.83c.66 1.27 1.3 2.53 2 3.79a.78.78 0 0 1-.21 1.07c-1 .92-1.93 1.9-2.94 2.8a21.77 21.77 0 0 0-3.91 4.39 1.7 1.7 0 0 1-.46.31ZM355.26 496c0 .06.09.12.09.18a16.49 16.49 0 0 1-1.25 9.72c-1.6 3.35-4.09 3.82-6.88 3.05a7.82 7.82 0 0 1-5.47-5.55 18.17 18.17 0 0 1-.7-7.78c.52-.26.67.13.87.36 2.51 2.87 5.67 3.19 9.1 2.28a7.57 7.57 0 0 0 3.55-1.91.87.87 0 0 1 .69-.35Z"></path><path fill="#f28704" d="M171.14 484a11.18 11.18 0 0 1-.61 4 3.9 3.9 0 0 1-1.11 1.68 12.66 12.66 0 0 1-4.17 2.84 69.28 69.28 0 0 1-12.25 4.23c-3.43.8-6.87 1.58-10.35 2.1a6 6 0 0 1-5.79-2.22 1.41 1.41 0 0 1-.19-.34c0-.05 0-.13.08-.32 2.52.32 4.86-.59 7.27-1.21 2.09-.53 4.22-1 6.32-1.49a82.75 82.75 0 0 0 10.61-3.48 43.44 43.44 0 0 0 8.95-5.18c.35-.26.64-.71 1.24-.61ZM398.53 493.18c-.16 2.67-.39 4.81-1.52 6.75-.44.76-.86 1.54-1.25 2.33-1.9 3.89-7.13 3.28-9.09.74a9.9 9.9 0 0 1-1.64-3.68 9.06 9.06 0 0 1-.22-3.44c.19-1.48.43-2.95.66-4.42 0-.11.11-.29.17-.29a.47.47 0 0 1 .33.17c.26.31.48.65.74 1 .44.52.86 1.05 1.33 1.53a6.58 6.58 0 0 0 7.68 1.31 10 10 0 0 0 2.81-2ZM205 491.26a18.35 18.35 0 0 1-4.44-.39c-.26-.07-.54-.09-.79-.18-2-.71-2-1-.68-2.37.37-.39.77-.77 1.15-1.14a13 13 0 0 1 12-3.5 18.63 18.63 0 0 1 4.68 1.31c.79.36.85.59.5 1.43a5.61 5.61 0 0 1-2.57 2.78 14.71 14.71 0 0 1-4.59 1.58 25 25 0 0 1-5.26.48ZM382.4 163.79c-.35.12-.52-.12-.7-.3a58.6 58.6 0 0 0-7.85-6.11c-.74-.52-.81-.68-.41-1.52.57-1.22 1.22-2.41 1.85-3.61a10.86 10.86 0 0 0 1.69-4.74c0-.52.33-.7.8-.65l2.43.29a1.32 1.32 0 0 1 1.14 1 19 19 0 0 1 .63 3 55 55 0 0 1 .64 12c-.01.18.07.49-.22.64Z"></path><path fill="#f18604" d="M137.83 494.49c-.38 0-.72 0-1.05-.06a2.58 2.58 0 0 1-2.28-2 1.85 1.85 0 0 1 .74-2.15 9 9 0 0 1 1.6-.84c1.19-.48 2.4-.91 3.59-1.38a.84.84 0 0 1 1.08.23 28.34 28.34 0 0 0 3.27 3c.48.41 1.3.46 1.4 1.28a4.92 4.92 0 0 1-1.88.55c-1.49.44-3 .8-4.5 1.19a5.52 5.52 0 0 1-1.97.18Z"></path><path fill="#0b0707" d="M198.64 189.4a25.24 25.24 0 0 1-4.8 4c-.43.32-.89.6-1.43 1 3.84 5 7.65 9.84 12.62 13.67a1 1 0 0 0-.9.52 18.49 18.49 0 0 1-4.19-3.48 91.81 91.81 0 0 1-7.27-8.48 42.91 42.91 0 0 0-6.6-6.87c-.89-.72-1.85-1.35-2.79-2a.52.52 0 0 1-.19-.7.61.61 0 0 1 .72-.21 6.33 6.33 0 0 1 1.9 1.14 41.63 41.63 0 0 1 4.53 4.07c.33.34.64.7 1 1a.65.65 0 0 0 .89.07 30.4 30.4 0 0 0 4.74-3.48l1.56-1.27c.01.33-.35.77.21 1.02Z"></path><path fill="#ef8504" d="M200.54 492.4a27.73 27.73 0 0 0 10.7-.33 24.15 24.15 0 0 0 4.75-1.75.37.37 0 0 1 .06.54 10 10 0 0 1-7.45 5 10.16 10.16 0 0 1-6.45-1.27 12.67 12.67 0 0 1-2.45-1.8c-.02-.7.4-.56.84-.39Z"></path><path fill="#110d0d" d="M319.73 215.33a29.51 29.51 0 0 1 4.16-4.21c-.57-1.19-1.88-1.82-2.49-3a.87.87 0 0 0 .52-.81c.91.9 1.84 1.77 2.72 2.69a1.18 1.18 0 0 0 1.25.4 8.71 8.71 0 0 0 4.09-2.07c.29-.27.5-.66.95-.69a.48.48 0 0 1 .35.11.48.48 0 0 1 .12.35 1.4 1.4 0 0 1-.51.84 7.75 7.75 0 0 1-3.94 2.33 8 8 0 0 0-4.12 2.38c-.52.52-1.09 1-1.64 1.48-.14-.25-.32-.39-.6-.21a1.56 1.56 0 0 1-.86.41Z"></path><path fill="#e57f04" d="M149.92 195.14c-1.27 1.54-2.77 2.79-3.69 4.57-.17-.34 0 .1-.23-.07a.35.35 0 0 1-.09-.17c-.12-.53-.26-1.05-.33-1.58-.12-.78-.19-1.57-.29-2.46.83 0 1.56-.06 2.29-.06s1.42-.45 2.34-.23Z"></path><path fill="#c96f03" d="M203.28 185.26c.91-1 1.82-2 2.74-3 .08-.08.33-.14.36-.1a.9.9 0 0 1 .21.48 2.11 2.11 0 0 1-1 1.71 5 5 0 0 1-1.79.94.43.43 0 0 1-.52-.03Z"></path><path fill="#f38704" d="M195.4 256.2a18.81 18.81 0 0 0-.67-1.91c-2.18-5.2-4.27-10.42-6.57-15.56a118.29 118.29 0 0 1-6.07-15.07 2.83 2.83 0 0 0-1.82-2 55.4 55.4 0 0 1-11-5.77 6.79 6.79 0 0 0-4-1.21h-3.05a7.72 7.72 0 0 1-6.5-3.57 2.22 2.22 0 0 0-1.65-1 3.93 3.93 0 0 1-3.33-2.33.69.69 0 0 0-1-.47 2.59 2.59 0 0 1-2.16-.16 3.92 3.92 0 0 1-.54-2.8c.29-1 .3-1-.23-1.24s-.49.12-.46.45a24.26 24.26 0 0 0 .54 4c0 .06.43 4.22.74 6.23a101 101 0 0 1 .77 14 3.62 3.62 0 0 1-3.34 3.9c-1.34.2-2.69.35-4 .43-3.66.22-7.3.53-10.93 1.08-2.88.43-5.71 1.18-8.63 1.34a.73.73 0 0 0-.8.73c0 .75-.07 1.49-.06 2.24.06 5.29 0 10.58.4 15.87a51.82 51.82 0 0 0 1.08 7.85 19.36 19.36 0 0 1 .53 2.58c.21 2.58.56 2.54 2.89 3.18.26.07.53.11.8.16a87.14 87.14 0 0 0 11.73 1.19A153.38 153.38 0 0 0 155 268a148.38 148.38 0 0 0 14.71-1.95q6.59-1.29 13.15-2.68a37 37 0 0 0 8.89-2.82c.85-.43 1.71-.85 2.51-1.35 1.43-.87 1.61-1.37 1.14-3Z"></path><path fill="#644202" d="M200.54 492.4c-.29.12-.67.05-.84.42a1.22 1.22 0 0 1-.34-.18.5.5 0 0 1-.16-.35c0-.25.24-.27.44-.27a1.13 1.13 0 0 1 .9.38Z"></path><path fill="#0c0909" d="M158.14 301.25c-.62-.51-.62-.82 0-1.09Z"></path><path fill="#2b1e1e" d="m325.6 184.1-.06.75c-.44-.29-.48-.54.06-.75Z"></path><path fill="#8d3401" d="m203.28 185.26.57.05a2.26 2.26 0 0 1-.42.29.31.31 0 0 1-.29-.09c-.09-.11-.01-.21.14-.25Z"></path><path fill="#995703" d="m216.05 490.86-.06-.54c0-.15.15-.24.27-.16s.15.22.11.29a2.4 2.4 0 0 1-.32.41Z"></path><path fill="#2b1e1e" d="M325.58 184.9a.34.34 0 0 1 .34.36.33.33 0 0 1-.34-.36ZM325.1 185.69a.34.34 0 0 1-.36-.37c.26 0 .36.13.36.37ZM326.8 186.18a.28.28 0 0 1 .3.31c-.2-.01-.31-.1-.3-.31ZM325.88 186.52c-.24 0-.34-.12-.33-.35.24-.01.35.11.33.35ZM326.39 185.76a.29.29 0 0 1 .31.32.29.29 0 0 1-.31-.32ZM325.49 186.11a.31.31 0 0 1-.34-.37c.24.01.35.12.34.37ZM326 185.34a.31.31 0 0 1 .33.33.31.31 0 0 1-.33-.33ZM326.3 187a.34.34 0 0 1-.36-.38.33.33 0 0 1 .36.38Z"></path><path fill="#0a0808" d="M277.89 306.34c-.24-.06-.41-.18-.38-.41a1.33 1.33 0 0 1 .19-.56c.32-.43.67-.85 1-1.25a28.78 28.78 0 0 0 6-10.51 35.49 35.49 0 0 1 6.88-12.13 16.19 16.19 0 0 1 3.79-3.36 3.72 3.72 0 0 1 .92-.38.37.37 0 0 1 .46.28.46.46 0 0 1-.06.37 6.72 6.72 0 0 1-.78.63 14.7 14.7 0 0 0-2.9 2.55 37.45 37.45 0 0 0-7 11.62c-.14.38-.29.76-.4 1.15-1.25 4.42-3.84 8-6.82 11.42-.2.31-.46.63-.9.58Z"></path><path fill="#0c0808" d="M273 297.65a3.15 3.15 0 0 1-.5.3.41.41 0 0 1-.51-.2c-.27-.46-.51-.95-.76-1.43a10.83 10.83 0 0 0-2.5-3.17 70.56 70.56 0 0 0-12.57-8.93 59.3 59.3 0 0 0-9.13-3.91c-.65-.23-1.53-.16-1.62-1.17.68-.56 1.27 0 1.87.18A55.81 55.81 0 0 1 266.72 290c1 .81 2 1.66 2.95 2.5a11.29 11.29 0 0 1 3 4.27c.12.23.18.47.33.88Z"></path><path fill="#0e0a0a" d="M270.55 302.86a.49.49 0 0 1-.59.38 6 6 0 0 1-1.28-.6c-6-3.73-12.11-7.42-17.89-11.56-.31-.23-.75-.4-.64-.92.07-.36.61-.38 1.22 0 1.48 1 2.95 1.92 4.4 2.92 2.67 1.85 5.4 3.59 8.2 5.25 2.09 1.24 4.14 2.56 6.21 3.85a.63.63 0 0 1 .37.68Z"></path><path fill="#0e0e0e" d="M278.67 282.51v-9.34a6 6 0 0 1 .17-1.19c0-.08.19-.15.3-.2s.24 0 .33.13a2.11 2.11 0 0 1 .21 1.18c.08 2.3.15 4.6.25 6.9.14 3.59.3 7.17.43 10.76a10 10 0 0 1-.12 1.81.57.57 0 0 1-.59.45.52.52 0 0 1-.48-.55V289c-.08-2.16-.2-4.33-.3-6.49Z"></path><path fill="#010100" d="M252.86 249.36c-.44-.11-.7-.18-1-.23-1.43-.32-1.43-.32-1.93 1.09a.89.89 0 0 1-.16.37.48.48 0 0 1-.34.13.45.45 0 0 1-.33-.19 1.24 1.24 0 0 1-.1-.53c0-.72.43-1.42.08-2.19-.08-.18.11-.52.24-.75a4.86 4.86 0 0 1 2.37-2.42 1.26 1.26 0 0 0 1-1.32 11.58 11.58 0 0 1 2.48-6.76 19.86 19.86 0 0 1 3.84-4.19 5.6 5.6 0 0 0 2.3-4.75v-4.64c-.48-.24-.85-.41-1.2-.61a9.31 9.31 0 0 0-3.09-.9 2 2 0 0 1-2.05-1.34c-.7-1.77-1.29-3.57-1.86-5.38-.48-1.56-1-3.09-1.53-4.64a4 4 0 0 0-2.26-2.47 17.93 17.93 0 0 1-3.84-2.28 15 15 0 0 1-6-11.73 14.3 14.3 0 0 1 3.57-9.93 18.24 18.24 0 0 1 24.79-2.41 14.95 14.95 0 0 1 1.9 22.27c-.37.4-.78.76-1.18 1.13a5.32 5.32 0 0 0-1.67 3.37 15.69 15.69 0 0 0 .7 7.81c0 .07.06.13.08.19.45 2 .08 2.53-1.5 3.25a12 12 0 0 1-1.14.42 1.13 1.13 0 0 0-.91.95 2.2 2.2 0 0 1-.94 1.3 2.1 2.1 0 0 0-.76 2c.05 1.22.05 2.44.06 3.66a7.78 7.78 0 0 1-.5 2.79 6.18 6.18 0 0 1-2.09 2.71 20.11 20.11 0 0 0-4.17 4.7 10.33 10.33 0 0 0-1.88 5.71 4.84 4.84 0 0 0 .47 2.56 11 11 0 0 1 .62 1.92c.22.71.27 1.36-.6 1.67-.31.12-.34.4-.38.66s-.06.68-.14 1-.16.7-.61.61-.45-.47-.44-.81c-.03-.59.04-1.16.1-1.8Z"></path><path fill="#1f1101" d="M272.74 177.76c-.15-.18-.33-.31-.38-.48a1.15 1.15 0 0 1 0-.58q.81-2.82 1.64-5.63a3.9 3.9 0 0 1 .21-.57c.15-.3.32-.6.73-.57s.51.47.35 1c-.62 2.06-1.26 4.12-1.9 6.18a.9.9 0 0 1-.65.65Z"></path><path fill="#1c0f00" d="M253.69 165c.17.14.4.23.47.38a5.6 5.6 0 0 1 .36 1.14c.31 1.58.6 3.16.9 4.74a.62.62 0 0 1-.28.69c-.38.23-.61-.06-.82-.32a2 2 0 0 1-.29-.51 1.76 1.76 0 0 1-.07-.4c-.25-1.58-.51-3.17-.76-4.75a1.06 1.06 0 0 1 0-.59c.11-.18.32-.27.49-.38Z"></path><path fill="#201200" d="M241.35 170.75c.09.06.31.12.41.26 1.07 1.47 2.12 2.94 3.17 4.42a1.09 1.09 0 0 1 .22.55.9.9 0 0 1-.26.5.41.41 0 0 1-.36 0 1.41 1.41 0 0 1-.45-.39q-1.44-1.93-2.85-3.9a1.25 1.25 0 0 1-.37-1.1.39.39 0 0 1 .49-.34Z"></path><path fill="#1f1000" d="M229.38 183.84a3 3 0 0 1 .57.14 29.46 29.46 0 0 1 4.68 2.39 1.27 1.27 0 0 1 .4.43.4.4 0 0 1 0 .37 1.38 1.38 0 0 1-.47.31s-.13 0-.19 0c-1.68-.85-3.37-1.69-5-2.55a.53.53 0 0 1-.28-.27 1.22 1.22 0 0 1 0-.57c-.02-.09.16-.17.29-.25Z"></path><path fill="#190e00" d="M277.18 184.48c-.16-.1-.31-.14-.37-.24a.46.46 0 0 1 0-.38 1.19 1.19 0 0 1 .38-.45q2.26-1.33 4.53-2.62a1.39 1.39 0 0 1 .58-.1.38.38 0 0 1 .43.32.48.48 0 0 1-.06.37 1.4 1.4 0 0 1-.43.41c-1.51.86-3 1.72-4.56 2.56a2.05 2.05 0 0 1-.5.13Z"></path><path fill="#1f1100" d="M238 201.3c-.07.15-.1.4-.24.5a18.51 18.51 0 0 1-4.53 2.11.38.38 0 0 1-.46-.29.69.69 0 0 1 .11-.54 6.29 6.29 0 0 1 1.19-.72 11.48 11.48 0 0 0 3-1.55.49.49 0 0 1 .72.1 1.42 1.42 0 0 1 .21.39Z"></path><path fill="#1b0f00" d="M276.18 211.11c-.12.13-.19.26-.29.31a.48.48 0 0 1-.37 0 1.19 1.19 0 0 1-.45-.38c-.82-1.3-1.62-2.61-2.42-3.93a.44.44 0 0 1 .06-.55.49.49 0 0 1 .71 0 7.56 7.56 0 0 1 1 1.24c.57.9 1.09 1.84 1.62 2.77a1.69 1.69 0 0 1 .14.54Z"></path><path fill="#1a0f00" d="M243.66 209.33a1 1 0 0 1 0 .38c-.61 1.27-1.22 2.53-1.85 3.79a.61.61 0 0 1-.64.39c-.27 0-.45-.44-.31-.83.23-.62.5-1.24.77-1.86a11.74 11.74 0 0 0 1-2.18.44.44 0 0 1 .62-.32.67.67 0 0 1 .41.63Z"></path><path fill="#040200" d="M280 192.89h-1.83a.52.52 0 0 1-.5-.52.61.61 0 0 1 .39-.42 15.69 15.69 0 0 1 4.22 0c.13 0 .26.28.32.46s-.12.25-.23.3a2.32 2.32 0 0 1-.75.23H280Z"></path><path fill="#070400" d="M265.6 170.28v-2.64c0-.31 0-.73.5-.7s.44.44.49.76a3.55 3.55 0 0 1 0 .8c0 1.56 0 3.11-.06 4.67 0 .25 0 .52-.36.62s-.56-.24-.57-.67v-2.84Z"></path><path fill="#1e1200" d="M248.66 213.15a13.78 13.78 0 0 1-.8 3.17c-.1.25-.28.49-.59.44-.46-.07-.44-.46-.38-.77q.38-1.67.81-3.3c.06-.26.21-.49.55-.45s.34.34.4.59a1.3 1.3 0 0 1 .01.32Z"></path><path fill="#2a1600" d="M277.61 200.75a8.49 8.49 0 0 1 2.85.72.53.53 0 0 1 .25.68.59.59 0 0 1-.48.25c-1.12-.15-2.24-.33-3.36-.51a.49.49 0 0 1-.44-.55.62.62 0 0 1 .54-.52c.2-.04.4-.04.64-.07Z"></path><path fill="#070606" d="M152.79 274.92a9.93 9.93 0 0 1 .09-1.33c0-.15.26-.31.42-.37a.54.54 0 0 1 .67.31 4.1 4.1 0 0 1 .17 1 75.72 75.72 0 0 0 1.47 8.6 46.27 46.27 0 0 0 2.76 7.85 15.87 15.87 0 0 0 2.45 4 4.21 4.21 0 0 1 .58.82.62.62 0 0 1-.16.74.57.57 0 0 1-.74.08 4.76 4.76 0 0 1-.77-.64 15.29 15.29 0 0 1-2.36-3.54 44.19 44.19 0 0 1-4.17-14.16c-.13-1.19-.28-2.28-.41-3.36Z"></path><path fill="#0c0909" d="M150.31 300.51a22.49 22.49 0 0 1-6.49-.72 2.28 2.28 0 0 1-.58-.17.84.84 0 0 1-.54-.78c0-.33.45-.59 1-.47a31.56 31.56 0 0 0 8.29.57 36.9 36.9 0 0 0 7.83-1.06 13.88 13.88 0 0 1 1.8-.33.62.62 0 0 1 .64.4.63.63 0 0 1-.34.85 35.82 35.82 0 0 1-3.91 1.05 44.18 44.18 0 0 1-7.7.66Z"></path><path fill="#1c1515" d="M345.27 202.72c-.23-.09-.42-.15-.6-.24a.49.49 0 0 1-.09-.82 2.75 2.75 0 0 1 .88-.46c1.65-.34 3.31-.64 5-.94a1.14 1.14 0 0 1 .41 0c.27 0 .54.12.59.43a.63.63 0 0 1-.46.78c-1.94.43-3.85.83-5.73 1.25Z"></path><path fill="#181616" d="M381.86 173.83a16.25 16.25 0 0 1-.46 3.19.67.67 0 0 1-.71.58.7.7 0 0 1-.68-.82c.08-1.4.2-2.81.31-4.22a1.94 1.94 0 0 1 .16-.57c.12-.25.33-.48.62-.4s.57.26.6.44a15.43 15.43 0 0 1 .16 1.8Z"></path><path fill="#151010" d="M350.63 204.11c0 .09-.06.34-.19.44-1.41 1-2.84 2-4.28 3a.61.61 0 0 1-.87-.24.62.62 0 0 1 0-.75 2 2 0 0 1 .43-.43c1.16-.81 2.33-1.61 3.5-2.4a1.13 1.13 0 0 1 1-.17.56.56 0 0 1 .41.55Z"></path><path fill="#191717" d="M383.48 177.45a2.09 2.09 0 0 1-.42-.34.51.51 0 0 1-.08-.38 7.13 7.13 0 0 1 2.16-3.33.56.56 0 0 1 .75 0 .62.62 0 0 1 .19.52 12.09 12.09 0 0 1-2.17 3.36c-.06.13-.25.13-.43.17Z"></path><path fill="#090500" d="M149.63 174.49a25.78 25.78 0 0 1 .83-5.65c.62-2.36 1.37-4.68 2.06-7a2.39 2.39 0 0 1 .15-.37c.17-.38.36-.75.87-.66s.56.46.42 1-.35 1.16-.53 1.74a78.11 78.11 0 0 0-1.91 7.67 15 15 0 0 0 .29 7.23c.17.58.34 1.17.46 1.76a.7.7 0 0 1-.5.79.65.65 0 0 1-.82-.42 18.59 18.59 0 0 1-1.32-6.09Z"></path><path fill="#140e0e" d="M275.25 82.23a12 12 0 0 1 5.41 1.34A3.66 3.66 0 0 1 282.3 85a.45.45 0 0 1-.13.54.41.41 0 0 1-.53.14 4 4 0 0 1-.5-.34c-2.88-2.21-6.06-2.35-9.4-1.32a5.53 5.53 0 0 0-2.35 1.52.54.54 0 0 1-.72.1.68.68 0 0 1-.07-.91 5.3 5.3 0 0 1 2.27-1.64 12.44 12.44 0 0 1 4.38-.86Z"></path><path fill="#150f0f" d="M258.65 83a11.79 11.79 0 0 1 4.73 1.1 2.14 2.14 0 0 1 .64.46.67.67 0 0 1 .07.57.38.38 0 0 1-.47.26c-.45-.14-.89-.3-1.33-.47a9.54 9.54 0 0 0-6-.41 7 7 0 0 0-3.91 2.37 2.12 2.12 0 0 1-.58.54.76.76 0 0 1-.55 0 .37.37 0 0 1-.18-.51 4.38 4.38 0 0 1 1.54-1.91 10 10 0 0 1 6.04-2Z"></path><path fill="#141010" d="M262.69 108.33c-.36 0-.6-.38-.51-.61a3.65 3.65 0 0 1 2.87-2.31 19.36 19.36 0 0 1 2.62-.34c.68-.06 1.36 0 2-.09a5.6 5.6 0 0 0 3.69-1.49 2.75 2.75 0 0 1 .64-.49.39.39 0 0 1 .52.17.53.53 0 0 1 .07.38 3.21 3.21 0 0 1-.45.66 6.73 6.73 0 0 1-4.37 1.93c-.74.09-1.49.07-2.24.1-1.73.07-3.41.25-4.46 1.91-.07.14-.3.15-.38.18Z"></path><path fill="#1f1515" d="M271.77 111.64a.48.48 0 0 1-.26.49 3 3 0 0 1-.77.18 9.29 9.29 0 0 0-5.89 2.3.65.65 0 0 1-.73.21c-.18-.07-.42-.13-.33-.4a1.16 1.16 0 0 1 .26-.52 10.06 10.06 0 0 1 6.95-2.78.74.74 0 0 1 .77.52Z"></path><path fill="#241717" d="M267.63 116.56a4 4 0 0 1-.58-.11c-.18-.06-.37-.13-.4-.38a.37.37 0 0 1 .29-.45 13.92 13.92 0 0 0 3.11-.79c.08 0 .26.08.33.17a.4.4 0 0 1 0 .54 3.75 3.75 0 0 1-2.75 1.02Z"></path><path fill="#0f0c0c" d="M170.66 93.51c-.14.44-.29.75-.66.83a.62.62 0 0 1-.78-.47 6.28 6.28 0 0 0-1.63-2.77 3.82 3.82 0 0 0-5-.85c-.48.24-.93.54-1.42.78a.43.43 0 0 1-.54-.11.66.66 0 0 1-.14-.74.83.83 0 0 1 .22-.33c2.27-1.88 5.16-2.33 7.57-.16a7.92 7.92 0 0 1 2.18 3.14 5.87 5.87 0 0 1 .2.68Z"></path><path fill="#0c0909" d="M150.1 85.22a6 6 0 0 1 2.42.6 9.57 9.57 0 0 1 2.86 2.23 2.53 2.53 0 0 1 .5.87.67.67 0 0 1-.28.71.54.54 0 0 1-.74 0c-.25-.22-.47-.47-.71-.71a8.64 8.64 0 0 0-1.89-1.52 3.7 3.7 0 0 0-5 .54c-.39.37-.72.81-1.11 1.17-.22.21-.49.12-.74 0a.5.5 0 0 1-.19-.53.91.91 0 0 1 .13-.38 5.84 5.84 0 0 1 4.75-2.98Z"></path><path fill="#0e0a0a" d="M154.5 113.24c-2.05.18-3.71-.89-5.16-2.41a.92.92 0 0 1-.22-.54.77.77 0 0 1 .22-.53.64.64 0 0 1 .54-.12 2.55 2.55 0 0 1 .82.56c1.85 1.9 4 2 6.33 1.08.37-.15.73-.34 1.1-.5a.85.85 0 0 1 1.09.24c.24.33 0 .82-.51 1.14a1 1 0 0 1-.17.1 8.25 8.25 0 0 1-4.04.98Z"></path><path fill="#1e1818" d="M153.65 116.84a6.52 6.52 0 0 1-2.64-.51c-.66-.24-.93-.6-.81-1s.53-.54 1.18-.38c.13 0 .25.09.38.13a5.43 5.43 0 0 0 4.32-.33 2.37 2.37 0 0 1 .36-.17c.51-.21.87-.1 1 .28a.85.85 0 0 1-.41 1 6 6 0 0 1-3.38.98Z"></path><path fill="#130f0f" d="M157.37 105.75a12.07 12.07 0 0 1-1.83-.51 3.26 3.26 0 0 1-1.91-3.83.54.54 0 0 1 .58-.45.62.62 0 0 1 .59.47 5.18 5.18 0 0 1 .11.79 2.06 2.06 0 0 0 1.81 1.9c.39.09.8.1 1.19.21a.82.82 0 0 1 .71.86c-.02.36-.45.62-1.25.56Z"></path><path fill="#3e3737" d="M134.91 95.32a5.12 5.12 0 0 1 .1-.52c.11-.46.57-.79.86-.61s.3.55.12.87c-.42.73.22 1.08.54 1.55a.33.33 0 0 1-.15.5.58.58 0 0 1-.38 0 1.82 1.82 0 0 1-1.09-1.79Z"></path><path fill="#352d2d" d="M175.75 102.75a2 2 0 0 1-1.06 2.16.41.41 0 0 1-.54-.1.37.37 0 0 1 0-.52c.63-.54.94-1.11.44-1.92-.17-.27 0-.5.31-.58a.55.55 0 0 1 .64.36 2.75 2.75 0 0 1 .21.6Z"></path><path fill="#0a0808" d="M363.74 124.07a9.09 9.09 0 0 1-6.16-3.15.68.68 0 0 1 0-.92.72.72 0 0 1 1.07-.08c.36.31.69.65 1 1a7 7 0 0 0 2.46 1.38 4.62 4.62 0 0 0 5.43-1.61 8.1 8.1 0 0 0 1.16-2.12 3.37 3.37 0 0 1 .47-.88.67.67 0 0 1 .91-.17.62.62 0 0 1 .36.67c-.7 3.07-2.85 5.71-6.7 5.88Z"></path><path fill="#130f0f" d="M355.7 103.11a8.53 8.53 0 0 0-2.41-.26 2.15 2.15 0 0 0-2.24 1.68 1.87 1.87 0 0 1-.32.72.72.72 0 0 1-.92.16.61.61 0 0 1-.35-.66 3.56 3.56 0 0 1 2.54-3.1 6.44 6.44 0 0 1 4 .06c.42.14.71.39.66.87s-.44.58-.96.53Z"></path><path fill="#120d0d" d="M367.79 98a6.65 6.65 0 0 1 3.85 1.3.65.65 0 0 1 .23.88.71.71 0 0 1-.87.34c-.69-.25-1.35-.59-2-.87-1.34-.53-1.87-.38-2.79.75-.17.2-.3.45-.48.63a.6.6 0 0 1-.74.11.67.67 0 0 1-.31-.7 2.92 2.92 0 0 1 2.24-2.33 3.86 3.86 0 0 1 .87-.11Z"></path><path fill="#1c1414" d="M360.46 114.05c.15 0 .32 0 .4.13.83.95 1.66.66 2.49 0a1.12 1.12 0 0 1 .94-.25.73.73 0 0 1 .45.33.64.64 0 0 1 0 .56 4.64 4.64 0 0 1-2.55 1.51 2.7 2.7 0 0 1-2.3-1.41.72.72 0 0 1 .11-.56c.08-.14.3-.21.46-.31Z"></path><path fill="#251f1f" d="M364 127a3.65 3.65 0 0 1-2.4-.65.57.57 0 0 1-.18-.72.81.81 0 0 1 .46-.31 1 1 0 0 1 .59 0 3.08 3.08 0 0 0 2.52-.16 1 1 0 0 1 .38-.1.63.63 0 0 1 .63.4.57.57 0 0 1-.13.73 3.45 3.45 0 0 1-1.87.81Z"></path><path fill="#060505" d="M375.76 186a11.27 11.27 0 0 0-1.29-.23 12.92 12.92 0 0 0-11.92 5.23 13.06 13.06 0 0 0-2.79 6.45 1.49 1.49 0 0 1-.38.92.7.7 0 0 1-.73.22.74.74 0 0 1-.52-.57 2.08 2.08 0 0 1 0-.61 15.38 15.38 0 0 1 11.55-12.75 17.94 17.94 0 0 1 6.07-.13 1.9 1.9 0 0 1 .39.11c.38.14.78.27.8.78s-.42.68-1.18.58Z"></path><path fill="#140a00" d="M158.59 480.67c-.1.16-.18.38-.33.46a.6.6 0 0 1-.55 0 5.21 5.21 0 0 1-.73-.68 5.15 5.15 0 0 0-2.47-1.67.64.64 0 0 1-.51-.91.8.8 0 0 1 1-.48 6.77 6.77 0 0 1 3.46 2.66 2 2 0 0 1 .13.62Z"></path><path fill="#150a00" d="M155.35 482.17c-.12.45-.36.6-.63.54a1.53 1.53 0 0 1-.68-.38 6.16 6.16 0 0 0-2.31-1.52c-.52-.18-.66-.57-.47-.92a.71.71 0 0 1 .82-.41 5.56 5.56 0 0 1 3.09 2.08 1.41 1.41 0 0 1 .18.61Z"></path><path fill="#160b00" d="M149.32 481.85a1.33 1.33 0 0 1 .4 0 6.24 6.24 0 0 1 2.59 1.79.65.65 0 0 1 .05.75.52.52 0 0 1-.69.24c-1-.57-1.91-1.17-2.84-1.8-.11-.07-.12-.36-.09-.54s.31-.38.58-.44Z"></path><path fill="#140d00" d="M206.06 473.24a6.24 6.24 0 0 0-3 .4c-.27.13-.51-.05-.66-.31a.59.59 0 0 1 .12-.74 1.61 1.61 0 0 1 .63-.47 7.27 7.27 0 0 1 4.18-.24 1.57 1.57 0 0 1 .69.38.69.69 0 0 1 .16.54c0 .16-.22.41-.35.42-.56.04-1.16.02-1.77.02Z"></path><path fill="#271501" d="M207.1 474.93a2.24 2.24 0 0 1 1.54.34 1 1 0 0 1 .29.49c.07.32-.18.51-.42.61a1.85 1.85 0 0 1-.78.1 6 6 0 0 0-2.59.33.61.61 0 0 1-.82-.37.68.68 0 0 1 .28-.87 4 4 0 0 1 2.5-.63Z"></path><path fill="#ef8606" d="M234.06 50.4a3.55 3.55 0 0 0-3.36 3.6 3.26 3.26 0 0 0 3.16 3.31 3.5 3.5 0 0 0 3.33-3.63 3.19 3.19 0 0 0-3.13-3.28Zm-1.24 5.54a.61.61 0 0 1-.52-.22 3.65 3.65 0 0 1-.3-3.42c0-.12.31-.21.48-.23a.35.35 0 0 1 .4.34 4 4 0 0 1 0 .72 5 5 0 0 0 .33 2.2.47.47 0 0 1-.39.61Z"></path><path fill="#ee8506" d="M254.82 47.44a3.13 3.13 0 0 0-3.29 2.91 3.31 3.31 0 0 0 3.29 3.21 3.18 3.18 0 0 0 3.18-3.09 3 3 0 0 0-3.18-3.03Zm-.91 5a.58.58 0 0 1-.7-.25 6 6 0 0 1-.49-1.1 2 2 0 0 1-.06-.62 2.36 2.36 0 0 1 .65-2 .49.49 0 0 1 .38 0 .55.55 0 0 1 .28.24.66.66 0 0 1 .06.39 3.64 3.64 0 0 0 .16 2.75.43.43 0 0 1-.28.6Z"></path><path fill="#ef8605" d="M274.87 46.62a3.27 3.27 0 0 0-3.46.18 2.65 2.65 0 0 0-.93 3.23 3.63 3.63 0 0 0 3.52 2.24 2.91 2.91 0 0 0 2.72-3 3.06 3.06 0 0 0-1.85-2.65ZM273.19 51a.5.5 0 0 1-.71-.08 3 3 0 0 1-.77-2.36 1.75 1.75 0 0 1 .28-1.19.76.76 0 0 1 .54-.17c.18 0 .43.13.37.37a4.69 4.69 0 0 0 .46 2.9.45.45 0 0 1-.17.53Z"></path><path fill="#ef8607" d="M293 46.87a2.51 2.51 0 0 0-2.5 2.65 2.92 2.92 0 0 0 2.92 3 2.48 2.48 0 0 0 2.5-2.62 3 3 0 0 0-2.92-3.03Zm.17 4.56a.6.6 0 0 1-.54 0 2.35 2.35 0 0 1-1.29-2.06c0-.64 0-1.06.36-1.33a.76.76 0 0 1 .54-.1c.1 0 .27.17.26.25a3.34 3.34 0 0 0 .86 2.73c.03.08-.1.43-.22.51Z"></path><path fill="#f38704" d="M256.6 178.62c4.9.08 9.09 1.65 12.29 5.23 3.93 4.4 4.86 9.43 2.55 14.93a11.18 11.18 0 0 1-4.22 5.1c-.62.41-1.08 1.16-1.73 1.36a6.23 6.23 0 0 1-2.2-.18h-.2c-2.45.21-2 .45-3-2a24.79 24.79 0 0 1-1.22-4.3 1.49 1.49 0 0 1 .65-1.75 6.49 6.49 0 0 0 2.12-2.44 3.33 3.33 0 0 0 .39-2.16 1.67 1.67 0 0 0-1-1.41 1.6 1.6 0 0 0-1.69.4 5.5 5.5 0 0 0-1.68 3.4 9.59 9.59 0 0 0-.09 1.42.92.92 0 0 1-.64.92c-1.06.47-1.34.38-1.79-.76a5.16 5.16 0 0 0-1.9-2.57 1.94 1.94 0 0 0-3 1.47 2.83 2.83 0 0 0 1.28 2.62 4.13 4.13 0 0 0 2.47.83.78.78 0 0 1 .79.76c.1.6.26 1.2.3 1.81a12.51 12.51 0 0 0 .9 4.56.6.6 0 0 1-.37.83c-1 .41-2 .78-3 1.18a1 1 0 0 1-1.1-.28 8.21 8.21 0 0 0-2.43-1.45c-4.59-2.33-7.54-5.93-8.3-11.11a13 13 0 0 1 3-10.44 16.19 16.19 0 0 1 12.82-5.97Z"></path><path fill="#e78004" d="M264.65 206.9a2 2 0 0 1-.31.34 4.62 4.62 0 0 1-1.88.73c-.86.21-1.73.34-2.6.49-2.26.4-4.58.5-6.74 1.42-.26.11-.38-.11-.43-.29a1 1 0 0 1 .06-.56c0-.1.22-.15.34-.19l4.57-1.73a22.09 22.09 0 0 1 5.59-1 1.79 1.79 0 0 1 1.35.32c.13.11.18.21.05.47Z"></path><path fill="#eb8304" d="M257.38 206c-.09 0-.3-.19-.41-.42a4.37 4.37 0 0 1-.5-1.31c-.24-1.66-.41-3.33-.59-5 0-.4.26-.58.59-.69s.63-.33.95-.09a.93.93 0 0 1 .3.49 29.74 29.74 0 0 0 1.77 5.76c.21.46 0 .72-.51.87s-.91.18-1.6.39Z"></path><path fill="#cf7503" d="m258 219.49.61-.07c.35-.11.74-.09 1-.36a37.62 37.62 0 0 1 5.38-1.77 3.57 3.57 0 0 1 .79-.16c.26 0 .58 0 .6.38a.64.64 0 0 1-.25.48 8.11 8.11 0 0 1-1.48.65 33.71 33.71 0 0 1-5.71 1.29 1.46 1.46 0 0 1-.9.08.36.36 0 0 1-.14-.33c0-.12.03-.19.1-.19Z"></path><path fill="#d87603" d="M256.76 212.19c1.88-.53 3.75-1.06 5.63-1.57a3.33 3.33 0 0 1 1.8-.06c.16 0 .25.12.22.28a.85.85 0 0 1-.11.37 3 3 0 0 1-1.82.78 24.17 24.17 0 0 1-4.79.62c-.41.07-.92.39-.93-.42Z"></path><path fill="#d77903" d="m255.53 216.28.72-.12c.28-.15.62-.11.89-.29l5.58-1.88a3.78 3.78 0 0 1 1.59-.26c.17 0 .45.11.49.23.09.28-.08.5-.38.6s-.76.29-1.15.39l-6.47 1.72-.45.24a.51.51 0 0 1-.34.17.83.83 0 0 1-.56 0c-.11-.28-.19-.56.08-.8Z"></path><path fill="#de7e04" d="M252 194.66c.14 0 .38 0 .52.14a5.24 5.24 0 0 1 1 1 1.76 1.76 0 0 1 .47 1.62c-.15.39-1.33.11-2-.46a1.59 1.59 0 0 1-.66-1.57.9.9 0 0 1 .67-.73Z"></path><path fill="#c06a03" d="M263.65 216.48c-1.66.57-3.31 1.14-5 1.69a10.71 10.71 0 0 1-1.39.29.36.36 0 0 1-.45-.26c-.08-.28.17-.36.34-.41a34.56 34.56 0 0 1 6-1.6c.41-.19.5-.03.5.29Z"></path><path fill="#dd7b04" d="M258.93 196a3.67 3.67 0 0 1 1.09-3.65.6.6 0 0 1 .55-.08.61.61 0 0 1 .28.46 2.16 2.16 0 0 1-.08 1 4.3 4.3 0 0 1-1.84 2.27Z"></path><path fill="#d17403" d="M258.36 210.49a11.36 11.36 0 0 1-4.25.93c-.12 0-.24-.1-.36-.15.07-.16.1-.41.23-.48a6.91 6.91 0 0 1 3.46-.74c.43-.11.94-.37.92.44Z"></path><path fill="#c87003" d="M256.76 212.19c.22.34.59.35.93.42a22.53 22.53 0 0 0-2.93 1.2.39.39 0 0 1-.53 0 1 1 0 0 1-.27-.91c.06-.24.26-.27.45-.3Z"></path><path fill="#b06603" d="M259.09 214.09c-1.07.31-2.15.64-3.22.94a.4.4 0 0 1-.35-.12c-.15-.21 0-.33.19-.43a6.75 6.75 0 0 1 2.63-.79c.36-.07.83-.35.75.4Z"></path><path fill="#8a4402" d="M262.85 209.27a4.66 4.66 0 0 1-2.48.78c-.15-.14-.41-.17-.42-.44a9.07 9.07 0 0 1 2.91-.62Z"></path><path fill="#b37103" d="m263.65 216.48-.44-.29a1.94 1.94 0 0 1 1.5-.43.94.94 0 0 0 .58-.34c.25 0 .54-.2.66.16s-.11.48-.38.54Z"></path><path fill="#cf7003" d="m260 209.61.42.44-.7.08c-.28.18-.63.13-.91.31l-.4.05c-.2-.36-.57-.39-.92-.44a6.71 6.71 0 0 1 2.51-.44Z"></path><path fill="#cc8004" d="M262.24 220.54c-.85 1.12-1 1.14-1.74.35a2.8 2.8 0 0 1 1.74-.35Z"></path><path fill="#bf7703" d="M262.85 209.27a.54.54 0 0 0 0-.28c.51-.16 1-.32 1.52-.45a.33.33 0 0 1 .44.26c.05.3-.09.53-.39.54-.52.01-1.05-.05-1.57-.07Z"></path><path fill="#bd4301" d="m258 219.87 1 .06a3.13 3.13 0 0 1-1.94.38.56.56 0 0 1-.59-.43c.31-.3.7-.17 1.07-.2a.67.67 0 0 1 .46.19Z"></path><path fill="#443101" d="M259.09 214.09c-.17-.29-.49-.29-.75-.4a1.72 1.72 0 0 1 1.47-.31c.08 0 .16.13.24.19-.08.1-.14.23-.24.27a6.13 6.13 0 0 1-.72.25Z"></path><path fill="#947f03" d="M257.55 219.88h-1.16c.23-.66.75-.34 1.18-.37a.21.21 0 0 1 .08.25c-.03.08-.07.12-.1.12Z"></path><path fill="#c64902" d="M258.76 210.44a.86.86 0 0 1 .91-.31 1 1 0 0 1-.91.31Z"></path><path fill="#bc6d03" d="M257.14 215.87a.82.82 0 0 1-.89.29 1 1 0 0 1 .89-.29ZM255.53 216.28l-.09.8c-.33-.3-.54-.6.09-.8Z"></path><path fill="#cc7703" d="M259.59 219.06c-.24.4-.62.39-1 .36a1.23 1.23 0 0 1 1-.36Z"></path><path fill="#a06903" d="m265.08 212.22.12.14c-.05 0-.12.11-.14.1-.17-.08-.16-.17.02-.24Z"></path><path fill="#af7703" d="M265.29 215.42a.67.67 0 0 1-.58.34Z"></path><path fill="#bc6d03" d="M256.35 216.91a.43.43 0 0 1 .45-.24ZM255.45 217.11h.56c-.18.26-.36.4-.56 0Z"></path><path fill="#cc7703" d="M257.55 219.88v-.37a.58.58 0 0 1 .39 0v.38Z"></path><path fill="#0e0b0b" d="M260.54 91.19a4.15 4.15 0 0 0-5.2.15 1.73 1.73 0 0 0 .07 2.66 3.43 3.43 0 0 0 2.6.87 3.68 3.68 0 0 0 2.46-.72 1.84 1.84 0 0 0 .07-2.96Zm-3 1.65a1.64 1.64 0 0 1-.68.35c-.39.07-.83.1-1-.39a1 1 0 0 1 .82-1.17 1 1 0 0 1 1.1.76c-.03.12-.07.34-.2.45Zm2 .68a.38.38 0 0 1-.38-.37c-.05-.32.13-.49.45-.5s.34.14.4.36-.1.51-.46.51Z"></path><path fill="#0c0808" d="M278.66 89.9a3.25 3.25 0 0 0-2.39-.87 3.42 3.42 0 0 0-2.79 1 2 2 0 0 0 0 2.75 4 4 0 0 0 5.19 0 2 2 0 0 0-.01-2.88Zm-2.33 1.21c-.38.63-1 .51-1.58.53-.39-.08-.69-.23-.7-.64a.71.71 0 0 1 .39-.66 1.52 1.52 0 0 1 1.85.21.65.65 0 0 1 .04.56Zm1.34 1.27c-.28 0-.53 0-.65-.3a.58.58 0 0 1 .46-.75c.32 0 .74.25.7.54a.54.54 0 0 1-.51.51Z"></path><path fill="#100e0e" d="M152.74 92.7a2.3 2.3 0 0 0-2.21-1.5 1.93 1.93 0 0 0-2 1.43 5.17 5.17 0 0 0-.31 1.89 5.73 5.73 0 0 0 .13.9 2.38 2.38 0 0 0 1.8 1.74 2.21 2.21 0 0 0 2.2-1.14 3.93 3.93 0 0 0 .39-3.32Zm-2.52 2.37a.58.58 0 0 1-.54 0 1.49 1.49 0 0 1-.35-1.65c.17-.73.56-1.11 1-1s.6.52.58 1.14a1.66 1.66 0 0 1-.69 1.51Zm1.22.78c-.25 0-.44-.25-.46-.55s.26-.48.55-.38a.57.57 0 0 1 .37.4.49.49 0 0 1-.46.53Z"></path><path fill="#151313" d="M164.77 95.09a1.25 1.25 0 0 0-1.15.18 3.59 3.59 0 0 0-.69 4.89A1.85 1.85 0 0 0 166 100a3.46 3.46 0 0 0 .75-2.12 2.58 2.58 0 0 0-1.98-2.79Zm-.89 3.77a.74.74 0 0 1-.44-.62v-.36a2.56 2.56 0 0 1 .43-1.56.8.8 0 0 1 .68-.35.6.6 0 0 1 .55.5 2.35 2.35 0 0 1-.32 2.1.7.7 0 0 1-.9.29Zm1.72.83a.4.4 0 0 1-.44-.5.43.43 0 0 1 .46-.3.38.38 0 0 1 .31.41.35.35 0 0 1-.33.39Z"></path><path fill="#1d1515" d="M371 105a3.18 3.18 0 0 0-1.49-1.6c-.75-.39-1.28-.16-1.93.8-.66.48-.52 1.16-.43 1.81a2.16 2.16 0 0 0 .9 1.49 2 2 0 0 0 1.4.67 1.6 1.6 0 0 0 1.52-1.07 2 2 0 0 0 .03-2.1Zm-2 1.53a1.11 1.11 0 0 1-.61-.41 1.92 1.92 0 0 1-.34-1.47c.29-.12.54-.37.89-.2a1.06 1.06 0 0 1 .64.67 8.63 8.63 0 0 1 .11 1.14c-.29.05-.53.25-.75.23Zm1.54 0a2.63 2.63 0 0 1-.39-.06v-.14l-.11-.09a1.39 1.39 0 0 1 .29-.26c.18-.07.4-.09.47.16a.3.3 0 0 1-.32.36Z"></path><path fill="#211201" d="M260.4 186.37a2.08 2.08 0 0 1 0 .55c-.05.19-.17.4-.4.36a.74.74 0 0 1-.48-.27 3.11 3.11 0 0 1-.19-2.32c0-.09.2-.17.31-.18a.46.46 0 0 1 .36.11c.42.48.33 1.11.4 1.75Z"></path><path fill="#382001" d="M266.81 199.65c0 .16-.33.54-.53.51-.65-.11-1.3-.22-1.94-.39a.61.61 0 0 1-.26-.48.63.63 0 0 1 .31-.47 2.28 2.28 0 0 1 2.34.65 1 1 0 0 1 .08.18Z"></path><path fill="#281701" d="M265.93 187.76a5.67 5.67 0 0 1-1.27 2.23.4.4 0 0 1-.36 0c-.14-.12-.31-.31-.3-.46a3.47 3.47 0 0 1 1.17-2.22.37.37 0 0 1 .37 0 2 2 0 0 1 .39.45Z"></path><path fill="#2f1a01" d="M256.29 186.5c0 .55-.44.75-.64.63a3.28 3.28 0 0 1-1.3-2c0-.11.15-.35.28-.47a.37.37 0 0 1 .37 0c.81.5.92 1.41 1.29 1.84Z"></path><path fill="#1e1400" d="M247.24 200.72c-.2-.09-.35-.23-.3-.45a1.2 1.2 0 0 1 .26-.53c.4-.37.82-.71 1.25-1a.5.5 0 0 1 .72 0 .48.48 0 0 1 0 .72 5.23 5.23 0 0 1-1.57 1.27 1 1 0 0 1-.36-.01Z"></path><path fill="#231000" d="M267.12 193.51c.08.11.2.2.24.32a.43.43 0 0 1 0 .37 2.61 2.61 0 0 1-2.11.93c-.1 0-.22-.15-.27-.26a.45.45 0 0 1 0-.38 3.71 3.71 0 0 1 2.14-.98Z"></path><path fill="#321e01" d="M247.51 193.25a4.34 4.34 0 0 1 .63.13.39.39 0 0 1 .29.45c0 .12-.11.3-.2.32a13.24 13.24 0 0 1-1.77.37.5.5 0 0 1-.54-.48.55.55 0 0 1 .44-.59 9.91 9.91 0 0 1 1.15-.2Z"></path><path fill="#1e1300" d="M249.25 187.72h.2a2 2 0 0 1 1.35 1.36c0 .1-.07.27-.16.35s-.27.17-.34.13a2.27 2.27 0 0 1-1.36-1.38c-.06-.18.12-.37.31-.46Z"></path><path fill="#311d01" d="M250.7 205.07c-.09-.08-.26-.16-.27-.26a1.64 1.64 0 0 1 .59-1.6.63.63 0 0 1 .55-.05.6.6 0 0 1 .24.49 7.54 7.54 0 0 1-.58 1.26.38.38 0 0 1-.53.16Z"></path></g></svg>