<?xml version="1.0" encoding="utf-8"?>
<!-- Generator: Adobe Illustrator 27.5.0, SVG Export Plug-In . SVG Version: 6.00 Build 0)  -->
<svg version="1.1" xmlns="http://www.w3.org/2000/svg" xmlns:xlink="http://www.w3.org/1999/xlink" x="0px" y="0px"
	 viewBox="0 0 500 500" style="enable-background:new 0 0 500 500;" xml:space="preserve">
<g id="BACKGROUND">
	<rect style="fill:#FCFCFC;" width="500" height="500"/>
</g>
<g id="OBJECTS">
	<g>
		<path style="fill:#FFF8F8;" d="M430.293,421.581c53.242-54.439,30.193-138.907-72.957-158.178s-125.393-134.705-219.2-110.627
			C44.329,176.853,8.714,354.133,104.981,421.581H430.293z"/>
		
			<rect x="423.732" y="243.346" transform="matrix(-1 -1.224647e-16 1.224647e-16 -1 854.025 650.9636)" style="fill:#3B364D;" width="6.56" height="164.272"/>
		<path style="fill:#FFE5E2;" d="M182.753,421.581c0,2.381-20.873,4.311-46.622,4.311c-25.748,0-46.622-1.93-46.622-4.311
			c0-2.381,20.873-4.311,46.622-4.311C161.88,417.27,182.753,419.2,182.753,421.581z"/>
		<ellipse style="fill:#FFE5E2;" cx="309.02" cy="426.191" rx="90.615" ry="8.922"/>
		<g>
			<path style="fill:#AAB2C8;" d="M187.896,254.266H61.504c-5.942,0-10.758-4.817-10.758-10.758V133.907
				c0-5.942,4.817-10.758,10.758-10.758h126.392c5.942,0,10.758,4.817,10.758,10.758v109.601
				C198.655,249.449,193.838,254.266,187.896,254.266z"/>
			<rect x="60.774" y="133.988" style="fill:#E0E7FF;" width="127.852" height="109.439"/>
			<line style="fill:none;stroke:#AAB2C8;stroke-miterlimit:10;" x1="124.7" y1="133.988" x2="124.7" y2="243.427"/>
			<line style="fill:none;stroke:#AAB2C8;stroke-miterlimit:10;" x1="188.626" y1="188.707" x2="60.774" y2="188.707"/>
			<polygon style="opacity:0.54;fill:#FFFFFF;" points="116.707,133.988 73.83,243.346 92.793,243.346 136.132,133.988 			"/>
			<polygon style="opacity:0.54;fill:#FFFFFF;" points="149.862,133.988 106.985,243.346 125.948,243.346 169.287,133.988 			"/>
		</g>
		<rect x="328.821" y="237.474" style="fill:#773C4D;" width="125.896" height="11.743"/>
		<rect x="374.417" y="237.474" style="fill:#965363;" width="80.299" height="11.743"/>
		<g>
			<path style="fill:#61648A;" d="M420.297,237.474h-64.223c-2.236,0-4.049-1.813-4.049-4.049v-10.762
				c0-2.236,1.813-4.049,4.049-4.049h64.223V237.474z"/>
			<rect x="356.979" y="222.602" style="fill:#EDF1FC;" width="64.411" height="10.886"/>
			<rect x="356.823" y="222.602" style="fill:#E0E7FF;" width="45.978" height="10.886"/>
			<path style="fill:#FFC55A;" d="M409.753,218.615H345.53c-2.236,0-4.049-1.813-4.049-4.049v-10.762
				c0-2.236,1.813-4.049,4.049-4.049h64.223V218.615z"/>
			<rect x="346.279" y="203.742" style="fill:#EDF1FC;" width="64.411" height="10.886"/>
			<rect x="346.279" y="203.742" style="fill:#E0E7FF;" width="46.298" height="10.886"/>
			<path style="fill:#AF2F48;" d="M424.314,199.755h-64.223c-2.236,0-4.049-1.813-4.049-4.049v-10.762
				c0-2.236,1.813-4.049,4.049-4.049h64.223V199.755z"/>
			<rect x="361.056" y="184.883" style="fill:#EDF1FC;" width="64.411" height="10.886"/>
			<rect x="360.841" y="184.883" style="fill:#E0E7FF;" width="43.415" height="10.886"/>
		</g>
		<g>
			<path style="fill:#FFC55A;" d="M352.792,334.597c0.087,14.032-1.237,27.401-4.863,39.437c0,0.009-0.009,0.017-0.009,0.026
				c-10.162,33.694-38.417,56.911-104.488,54.759c-89.672-2.92-105.961-86.299-113.482-164.258
				c-6.109-63.256,12.907-109.813,69.993-125.135c13.273-3.565,28.612-5.438,46.165-5.438
				C326.803,133.988,352.453,281.251,352.792,334.597z"/>
			<path style="fill:#F49947;" d="M347.92,374.06c-10.162,33.694-38.417,56.911-104.488,54.759
				c-89.672-2.92-105.961-86.299-113.482-164.258c-6.109-63.256,12.907-109.813,69.993-125.135
				c-49.024,29.885-61.199,84.33-41.163,167.151c20.028,82.822,70.577,106.911,103.312,106.963
				C294.818,413.602,335.902,402.917,347.92,374.06z"/>
			<path style="fill:#F49947;" d="M223.381,212.168c-63.962,11.387-36.058,102.752-21.919,128.335
				c14.138,25.584,20.165,55.88,52.834,57.227c32.67,1.346,74.412-13.465,78.451-24.238c4.039-10.772-14.444-66.92-14.444-66.92
				s-2.556-56.824-20.261-71.747C280.339,219.903,244.628,208.386,223.381,212.168z"/>
			<path style="fill:#F27C49;" d="M309.022,366.256c-11.684,21.84-51.508,29.516-65.154,26.06
				c-8.033-2.038-17.67-9.332-26.433-19.802c-5.596-9.858-10.079-21.347-15.972-32.012c-2.216-4.008-4.764-9.621-7.243-16.286
				c-4.874-23.461-4.73-51.321,4.432-60.815c12.44-12.873,24.514-21.941,25.381-29.915c0.671-6.258-6.428-14.512-5.001-20.379
				c1.393-0.357,2.845-0.671,4.348-0.934c17.5-3.116,44.809,4.144,63.795,15.14c1.826,6.92,1.987,16.193,6.284,19.199
				c6.606,4.602,16.821,33.464,19.411,47.016C315.45,307.08,309.022,366.256,309.022,366.256z"/>
		</g>
		<g>
			<path style="fill:#AF2F48;" d="M395.898,400.901c0.516,8.22,24.297-2.271,27.444-6.817c0,0-13.022,37.419-19.8,37.419
				c-6.778,0-25.256-19.49-25.256-19.49l2.218-11.112H395.898z"/>
			<path style="fill:#D35473;" d="M403.542,431.503c-7.377,3.165,11.057-43.364,19.8-42.315
				C432.085,390.237,413.068,427.417,403.542,431.503z"/>
			<path style="fill:#31344C;" d="M398.722,347.026c-0.479,24.054-6.728,53.878-6.728,53.878h-15.4c0,0-9.465-20.298-13.901-40.727
				c-1.116-5.125-1.909-10.258-2.161-15.078c0,0-23.863,7.216-46.949,2.885c-9.604-1.795-20.481-4.846-29.911-7.8
				c-13.23-4.131-23.61-8.07-23.61-8.07l0.784-0.994l16.838-21.3l45.32-6.815l5.308-0.802l32.221,9.988
				C389.109,315.276,399.21,322.971,398.722,347.026z"/>
			<path style="opacity:0.54;fill:#232433;" d="M362.693,360.177c-1.116-5.125-1.909-10.258-2.161-15.078
				c0,0-23.863,7.216-46.949,2.885c-9.604-1.795-20.481-4.846-29.911-7.8l-22.825-9.064l-1.996-0.793l-3.782-15.757l48.745-17.03
				l19.191,5.465l32.238,9.172c-7.792,13.997,7.888,30.552,11.33,35.529c3.443,4.976,13.23-3.059,19.435,0
				C392.212,350.764,367.626,349.3,362.693,360.177z"/>
			<path style="fill:#AF2F48;" d="M371.787,414.37c7.081,15.384,17.573,22.728,23.168,20.28l-2.448-25.529l-10.137-4.372
				L371.787,414.37z"/>
			<path style="fill:#D35473;" d="M394.955,434.651c-12.461,2.077-10.142-22.036-9.442-33.749
				c0.699-11.713,10.492-10.664,11.541-1.571C398.103,408.422,403.349,433.252,394.955,434.651z"/>
			<path style="fill:#383952;" d="M382.372,404.747l-10.58,9.622c-43.298-12.507-68.79-51.952-68.79-51.952
				c-24.054,27.898-50.993,34.156-72.669,0c0,0,1.368-15.182,18.947-26.887c3.408-2.283,7.434-4.427,12.175-6.301
				c18.799-7.443,43.803-8.89,59.212-8.977c9.299-0.052,18.006,4.48,23.374,12.071c9.064,12.812,17.701,28.7,24.482,42.33
				C376.855,391.413,382.372,404.747,382.372,404.747z"/>
			<path style="opacity:0.54;fill:#232433;" d="M382.372,404.747l-10.58,9.622c-43.298-12.507-68.79-51.952-68.79-51.952
				c-24.054,27.898-50.993,34.156-72.669,0c0,0,1.368-15.182,18.947-26.887l18.145-3.355c-21.178,41.59,29.737,31.889,38.923,24.307
				c9.186-7.591,17.858-15.191,21.963-15.609c4.105-0.418-17.544,15.574-2.275,33.781c15.26,18.215,50.479,29.562,42.487,0
				C376.855,391.413,382.372,404.747,382.372,404.747z"/>
			<path style="fill:#6D3744;" d="M276.847,197.61h-0.645c0,0-6.415,24.551-17.352,33.702c-1.97,1.647-4.087,2.798-6.345,3.216
				c-14.755,2.728-27.61-14.084-30.042-25.614c-1.359-6.449,1.037-10.406,3.417-12.629c1.865-1.778,3.73-2.466,3.73-2.466
				s0.967-18.189,7.303-17.858c6.092,0.314,5.072,2.728,4.994,2.911c0.392-0.523,13.648-18.145,22.764-16.228
				c9.256,1.952,2.763,15.583,2.763,15.583s11.687-11.844,15.583-5.029c3.896,6.815-7.626,15.095-7.626,15.095
				s9.901-0.157,10.877,3.416C287.236,195.274,285.78,198.69,276.847,197.61z"/>
			<path style="fill:#542633;" d="M258.85,231.312c-1.97,1.647-4.087,2.798-6.345,3.216c-14.755,2.728-27.61-14.084-30.042-25.614
				c-1.359-6.449,1.037-10.406,3.417-12.629c2.196,2.85,5.133,8.567,11.835,1.325h3.112L258.85,231.312z"/>
			<path style="fill:#61648A;" d="M298.043,304.346l-67.378,62.463c-3.277-2.946-6.127-6.022-8.593-9.221h-0.009
				c-4.576-5.909-7.87-12.219-10.206-18.799c-1.752-4.941-2.972-10.031-3.774-15.217c-1.848-11.835-1.595-24.211-0.845-36.5
				c1.752-28.778,10.45-47.996,44.997-48.484c0,0,15.836-4.427,27.558,1.891c9.221,4.959,15.226,41.633,17.37,57.059
				C297.746,301.723,298.043,304.346,298.043,304.346z"/>
			<path style="opacity:0.36;fill:#383952;" d="M283.692,275.899c-35.47,13.302-50.155-12.496-50.155-12.496l-11.469,41.226
				l24.542,7.563l42.728-4.449L283.692,275.899z"/>
			<path style="opacity:0.36;fill:#383952;" d="M298.043,304.346l-67.378,62.463c-3.277-2.946-6.127-6.022-8.593-9.221
				c11.722-0.889,36.901-28.918,30.286-30.382c-5.918-1.299-26.285,12.559-40.5,11.583c-1.752-4.941-2.972-10.031-3.774-15.217
				l21.649-18.947l67.43-7.086C297.746,301.723,298.043,304.346,298.043,304.346z"/>
			<path style="fill:#F4B8AB;" d="M260.064,296.049c7.914-5.349,17.125-0.891,20.394,1.486c3.268,2.377,0,8.617,0,8.617
				s-3.566-2.08-4.754-2.377c-1.188-0.297-6.918,4.16-18.316,2.377C245.989,304.368,260.064,296.049,260.064,296.049z"/>
			<path style="fill:#61648A;" d="M213.824,258.725c15.52-11.574,24.311-1.404,23.56,18.599
				c-0.751,20.002-0.751,20.002-0.751,20.002s19.793-6.316,24.635-6.316c0,0,0.422,13.686,0,18.599c0,0-23.933,23.16-39.725,24.915
				c-15.791,1.755-12.633-29.477-14.037-43.865C206.103,276.271,208.432,262.746,213.824,258.725z"/>
			<g>
				<path style="fill:#C3C9F4;" d="M277.721,307.078l11.773-47.687c1.2-4.862,5.562-8.278,10.57-8.278h67.555
					c4.435,0,7.682,4.18,6.584,8.478l-13.633,49.864L277.721,307.078z"/>
				<path style="fill:#E0E7FF;" d="M282.451,307.078l11.773-47.687c1.2-4.862,5.562-8.278,10.57-8.278h67.555
					c4.435,0,7.682,4.18,6.584,8.478l-13.633,49.864L282.451,307.078z"/>
				<path style="fill:#C3C9F4;" d="M345.783,311.832h-85.945c-1.313,0-2.377-1.064-2.377-2.377l0,0c0-1.313,1.064-2.377,2.377-2.377
					h85.945c1.313,0,2.377,1.064,2.377,2.377l0,0C348.159,310.767,347.095,311.832,345.783,311.832z"/>
				<path style="fill:#E0E7FF;" d="M366.043,311.832h-85.944c-1.313,0-2.377-1.064-2.377-2.377l0,0c0-1.313,1.064-2.377,2.377-2.377
					h85.944c1.313,0,2.377,1.064,2.377,2.377l0,0C368.42,310.767,367.356,311.832,366.043,311.832z"/>
				<path style="fill:#C3C9F4;" d="M337.305,280.148c-1.133,6.2-3.943,10.88-6.277,10.454c-2.334-0.426-3.307-5.798-2.174-11.998
					c1.133-6.2,3.943-10.88,6.277-10.454C337.465,268.577,338.438,273.949,337.305,280.148z"/>
			</g>
			<path style="fill:#F4B8AB;" d="M280.702,201.598c1.497,21.956-1.996,31.686-14.471,32.934v5.115c0,3.79-3.072,6.861-6.861,6.861
				l0,0c-3.789,0-6.861-3.072-6.861-6.861v-5.115c0,0-9.98-4.242-11.976-10.479c-1.996-6.237,0-0.998,0-0.998l-0.887-25.449h41.381
				L280.702,201.598z"/>
			<path style="fill:#F4B8AB;" d="M241.161,213.492c-3.138-5.721-6.828-3.322-7.567,0c-0.738,3.322,5.906,11.409,7.567,8.565
				C242.822,219.213,241.161,213.492,241.161,213.492z"/>
			<path style="fill:#6D3744;" d="M234.281,194.79c6.68,8.117,25.619,12.338,32.473,10.39c6.854-1.948-2.886-8.279-2.886-8.279
				s12.71,8.766,18.53,5.844c5.82-2.922-9.872-10.065-9.872-10.065L234.281,194.79z"/>
			<path style="fill:none;stroke:#191918;stroke-width:2;stroke-miterlimit:10;" d="M256.974,212.168c0,1.174-0.21,2.125-0.47,2.125
				c-0.26,0-0.47-0.952-0.47-2.125c0-1.174,0.211-2.126,0.47-2.126C256.763,210.043,256.974,210.994,256.974,212.168z"/>
			<path style="fill:none;stroke:#191918;stroke-width:2;stroke-miterlimit:10;" d="M270.46,212.168c0,1.174-0.211,2.125-0.47,2.125
				c-0.26,0-0.471-0.952-0.471-2.125c0-1.174,0.211-2.126,0.471-2.126C270.249,210.043,270.46,210.994,270.46,212.168z"/>
			<path style="fill:none;stroke:#E56A85;stroke-linecap:round;stroke-miterlimit:10;" d="M265.026,224.027
				c-6.459,0.148-11.468-4.503-11.468-4.503"/>
			<path style="opacity:0.53;fill:#DD6595;" d="M266.231,234.532c-5.526,0.497-11.935,0.294-11.935,0.294l11.935,4.82V234.532z"/>
			<path style="opacity:0.53;fill:#DD6595;" d="M240.827,215.026c-2.797-2.936-4.171-1.73-3.984,1.321
				c0.187,3.051,3.865,5.238,5.056,4.363C243.09,219.836,240.827,215.026,240.827,215.026z"/>
		</g>
		<g>
			<g>
				<path style="fill:#7C9E1E;" d="M131.426,367.927c-12.408-4.558-19.245-2.785-23.044-7.85c0,0,10.129-1.773,15.7,0
					L131.426,367.927z"/>
				<path style="fill:#B7AC15;" d="M124.082,360.077c-15.078-7.879-19.55-16.822-23.383-22.997
					c-3.833-6.175-5.962-11.286-7.453-11.712c-1.491-0.426,6.175,1.065,13.415,8.305c7.24,7.24,10.221,8.305,15.97,14.054
					c5.749,5.749,10.86,14.21,11.499,20.201h-2.705L124.082,360.077z"/>
				<path style="fill:#7C9E1E;" d="M128.381,357.947c-8.146-12.503-0.835-19.684-10.647-33.857
					c-11.499-16.609-7.879-33.218-6.175-43.652c0,0-2.55,12.143,7.455,23.958c10.006,11.815,19.801,16.392,20.652,34.013
					c0.852,17.622-2.555,29.518-2.555,29.518h-5.686L128.381,357.947z"/>
				<path style="fill:#B7AC15;" d="M135.796,367.927c-2.73-11.711,2.594-31.699,3.02-51.502
					c0.426-19.803-10.647-34.496,5.749-53.021c0,0-3.407,3.407,1.278,17.035c4.685,13.628,15.119,27.895,10.008,46.207
					c-5.111,18.313-16.123,33.311-16.047,41.281H135.796z"/>
				<path style="fill:#A88F14;" d="M139.803,367.927c-1.704-14.054,12.639-35.958,24.777-40.855c0,0,1.277,10.765-6.601,19.543
					c-7.879,8.778-13.736,21.313-13.736,21.313H139.803z"/>
				<path style="fill:#426313;" d="M144.243,367.927c0.534-9.341,8.626-12.616,16.93-15.024c0,0-10.008,10.098-11.711,15.024
					H144.243z"/>
				<path style="opacity:0.36;fill:#426313;" d="M148.14,368.993c1.415-7.075,4.605-9.3,4.021-9.704
					c-0.584-0.404-4.214,5.55-6.038,8.638c0,0-2.43-8.07,1.209-15.024c3.639-6.954,7.075-12.21,7.075-12.21
					s-11.724,13.543-12.331,20.389c0,0-1.213-6.88,0.809-15.757c2.021-8.877,7.277-17.367,5.357-27.878
					c-1.92-10.512-3.998-21.729-3.998-21.729s0.873,10.688,1.88,19.948c1.007,9.26-1.737,14.112-4.408,24.017
					c-2.671,9.905-1.176,23.999-2.328,23.926c-1.152-0.073-2.971,2.555-2.971,2.555s-1.22-15.161-3.036-28.098
					c-1.816-12.937-1.613-14.68-9.497-22.4c-7.884-7.72-8.894-12.439-8.894-12.439s5.324,10.581,9.737,17.454
					c4.413,6.873,5.828,9.905,5.828,22.034s0.606,18.946,1.617,20.894c1.011,1.949-7.479-11.526-14.15-16.109
					c-6.671-4.583-12.129-10.849-12.735-11.86c-0.606-1.011,6.469,11.724,11.724,15.161c5.256,3.437,14.416,15.161,14.416,15.161
					l-15.022-4.043l16.977,7.075H148.14z"/>
			</g>
			<path style="fill:#3A3852;" d="M161.531,371.7l-7.992,46.034c-0.096,0.561-0.288,1.074-0.561,1.539
				c-0.81,1.395-2.316,2.308-4.016,2.308h-28.752c-2.276,0-4.224-1.651-4.585-3.896l-7.494-46.034
				c-0.457-2.83,1.723-5.395,4.593-5.395h44.222C159.832,366.257,162.021,368.854,161.531,371.7z"/>
			<path style="opacity:0.54;fill:#232433;" d="M152.979,419.273c-0.81,1.395-2.316,2.308-4.016,2.308h-28.752
				c-2.276,0-4.224-1.651-4.585-3.896l-7.494-46.034c-0.457-2.83,1.723-5.395,4.593-5.395h15.206
				C113.83,388.156,137.348,413.606,152.979,419.273z"/>
		</g>
		<path style="fill:#FFC55A;" d="M201.463,340.501c5.893,10.665,10.376,22.154,15.972,32.012
			c-6.131-7.311-11.828-16.176-16.261-25.898c-2.836-6.216-5.214-14.028-6.954-22.4
			C196.699,330.881,199.247,336.493,201.463,340.501z"/>
	</g>
</g>
</svg>
